{"glyphs":{"0":{"ha":803,"x_min":36,"x_max":767,"o":"m 401 -22 q 568 30 497 -22 q 683 165 639 82 q 747 343 726 249 q 767 524 767 438 q 747 705 767 611 q 683 883 726 799 q 568 1018 639 967 q 401 1069 497 1069 q 235 1017 306 1069 q 120 883 164 965 q 56 706 76 800 q 36 524 36 611 q 56 343 36 438 q 120 165 76 249 q 235 30 164 82 q 401 -22 306 -22 m 401 958 q 515 915 468 958 q 589 802 561 871 q 629 660 617 733 q 642 525 642 588 q 629 390 642 463 q 589 250 617 318 q 515 138 561 182 q 401 94 468 94 q 288 138 335 94 q 214 250 242 182 q 174 390 186 318 q 161 525 161 463 q 174 660 161 588 q 214 802 186 733 q 288 915 242 871 q 401 958 335 958 z "},"1":{"ha":803,"x_min":171,"x_max":478,"o":"m 353 928 l 353 0 l 478 0 l 478 1047 l 243 1047 l 171 928 l 353 928 z "},"2":{"ha":803,"x_min":63,"x_max":739,"o":"m 317 119 l 661 540 q 719 642 699 586 q 739 756 739 699 q 713 880 739 822 q 641 980 688 938 q 535 1046 594 1022 q 408 1069 475 1069 q 181 985 268 1069 q 76 758 93 900 l 207 758 q 271 894 213 838 q 408 950 329 950 q 486 935 449 950 q 552 892 524 919 q 597 827 581 864 q 614 750 614 790 q 589 660 614 704 q 521 563 564 615 l 63 0 l 739 0 l 739 119 l 317 119 z "},"3":{"ha":803,"x_min":74,"x_max":728,"o":"m 382 500 q 393 500 388 500 q 403 501 403 501 q 548 446 493 501 q 603 297 603 390 q 546 151 603 211 q 403 92 489 92 q 267 138 325 92 q 200 258 210 183 l 74 258 q 103 144 76 196 q 174 54 131 92 q 274 -3 218 17 q 393 -22 331 -22 q 525 -1 464 -22 q 631 62 586 21 q 702 161 676 103 q 728 292 728 219 q 691 448 728 379 q 579 551 654 517 q 713 788 713 626 q 689 904 713 851 q 624 994 665 957 q 528 1050 583 1031 q 410 1069 472 1069 q 201 1002 281 1069 q 103 806 121 935 l 232 806 q 290 915 243 874 q 406 956 336 956 q 536 906 485 956 q 588 776 588 856 q 531 648 588 688 q 382 608 475 608 l 382 500 z "},"4":{"ha":803,"x_min":10,"x_max":771,"o":"m 651 267 l 651 1092 l 10 153 l 526 153 l 526 0 l 651 0 l 651 153 l 771 153 l 771 267 l 651 267 m 526 267 l 229 267 l 524 699 l 526 699 l 526 267 z "},"5":{"ha":803,"x_min":42,"x_max":749,"o":"m 733 928 l 733 1047 l 314 1047 l 153 510 l 178 510 q 265 578 211 553 q 374 603 318 603 q 469 583 424 603 q 549 529 514 564 q 604 449 585 494 q 624 354 624 404 q 604 256 624 303 q 550 173 585 208 q 469 117 515 138 q 371 97 424 97 q 231 142 300 97 q 139 253 163 188 l 42 161 q 175 27 88 76 q 361 -22 263 -22 q 513 5 442 -22 q 636 82 583 32 q 719 201 689 132 q 749 350 749 269 q 725 489 749 422 q 656 607 701 556 q 549 688 611 658 q 413 717 486 717 l 339 713 l 404 928 l 733 928 z "},"6":{"ha":803,"x_min":56,"x_max":750,"o":"m 526 1069 l 169 589 q 85 451 115 517 q 56 313 56 385 q 84 183 56 244 q 162 76 113 122 q 274 4 211 31 q 404 -22 338 -22 q 538 4 475 -22 q 649 78 601 31 q 724 189 697 126 q 750 322 750 251 q 727 444 750 385 q 663 549 704 503 q 566 623 621 596 q 447 650 511 650 q 344 625 394 650 l 342 628 l 621 1006 l 526 1069 m 403 94 q 318 112 358 94 q 247 160 278 129 q 199 231 217 190 q 181 315 181 271 q 199 397 181 357 q 249 467 217 436 q 321 516 281 499 q 403 533 361 533 q 484 517 444 533 q 556 469 524 500 q 606 397 588 439 q 625 308 625 356 q 607 226 625 265 q 558 158 589 188 q 486 111 526 128 q 403 94 446 94 z "},"7":{"ha":803,"x_min":65,"x_max":819,"o":"m 607 928 l 65 40 l 167 -22 l 819 1047 l 65 1047 l 65 928 l 607 928 z "},"8":{"ha":803,"x_min":74,"x_max":729,"o":"m 401 489 q 477 474 440 489 q 543 431 514 458 q 588 368 572 404 q 604 292 604 332 q 588 217 604 253 q 542 154 571 182 q 476 110 513 126 q 401 94 439 94 q 327 110 364 94 q 261 154 290 126 q 215 217 232 182 q 199 292 199 253 q 215 368 199 332 q 260 432 231 404 q 326 474 289 460 q 401 489 363 489 m 74 292 q 99 163 74 221 q 170 63 125 104 q 275 -1 215 21 q 401 -22 335 -22 q 528 -1 468 -22 q 633 63 588 21 q 703 163 678 104 q 729 292 729 221 q 686 447 729 379 q 564 543 643 515 q 665 641 629 581 q 701 778 701 701 q 678 894 701 840 q 614 988 656 949 q 518 1048 572 1026 q 401 1069 464 1069 q 285 1048 339 1069 q 189 988 231 1026 q 124 894 147 949 q 101 778 101 840 q 138 641 101 701 q 239 543 174 581 q 117 447 160 515 q 74 292 74 379 m 401 958 q 526 906 474 958 q 579 778 579 853 q 564 715 579 747 q 523 657 549 683 q 465 615 497 631 q 401 600 433 600 q 338 615 369 600 q 280 657 306 631 q 239 715 254 683 q 224 778 224 747 q 277 906 224 853 q 401 958 331 958 z "},"9":{"ha":803,"x_min":72,"x_max":767,"o":"m 296 -22 l 653 458 q 736 597 706 531 q 767 735 767 663 q 738 864 767 803 q 660 971 710 925 q 548 1043 611 1017 q 418 1069 485 1069 q 285 1043 347 1069 q 174 969 222 1017 q 99 858 125 921 q 72 725 72 796 q 95 605 72 663 q 160 501 118 547 q 257 429 201 456 q 376 403 313 403 q 478 422 439 403 l 481 419 l 201 43 l 296 -22 m 419 514 q 340 531 379 514 q 267 577 300 547 q 216 648 235 607 q 197 733 197 689 q 215 817 197 778 q 265 888 233 857 q 340 935 297 918 q 428 953 382 953 q 508 935 469 953 q 577 885 547 917 q 624 813 607 853 q 642 733 642 774 q 626 651 642 690 q 580 581 610 611 q 509 532 550 550 q 419 514 468 514 z "}," ":{"ha":697,"x_min":-1,"x_max":693,"o":"m -1 0 l 693 0 l 693 694 l -1 694 l -1 0 m 13 14 l 13 681 l 679 681 l 679 14 l 13 14 z "}," ":{"ha":401,"x_min":0,"x_max":0,"o":""},"!":{"ha":446,"x_min":143,"x_max":304,"o":"m 224 139 q 167 115 190 139 q 143 58 143 90 q 167 1 143 25 q 224 -22 190 -22 q 281 1 257 -22 q 304 58 304 25 q 281 115 304 90 q 224 139 257 139 m 161 242 l 286 242 l 286 1047 l 161 1047 l 161 242 z "},"\"":{"ha":610,"x_min":125,"x_max":485,"o":"m 125 1047 l 150 592 l 236 592 l 261 1047 l 125 1047 m 349 1047 l 374 592 l 460 592 l 485 1047 l 349 1047 z "},"#":{"ha":803,"x_min":35,"x_max":768,"o":"m 301 997 l 251 728 l 86 728 l 86 617 l 232 617 l 194 403 l 35 403 l 35 292 l 174 292 l 122 0 l 226 0 l 282 292 l 453 292 l 401 0 l 507 0 l 560 292 l 722 292 l 722 403 l 582 403 l 619 617 l 768 617 l 768 728 l 640 728 l 689 997 l 579 997 l 531 728 l 358 728 l 408 997 l 301 997 m 340 617 l 511 617 l 474 403 l 303 403 l 340 617 z "},"$":{"ha":803,"x_min":69,"x_max":733,"o":"m 463 485 q 569 406 531 449 q 608 297 608 363 q 567 177 608 231 q 463 108 526 124 l 463 485 m 393 1069 q 297 1042 342 1065 q 217 980 251 1018 q 163 894 182 942 q 143 796 143 847 q 194 647 143 703 q 343 542 246 592 l 393 517 l 393 100 q 258 158 304 111 q 194 296 213 204 l 69 269 q 108 157 79 210 q 180 65 136 104 q 278 2 224 25 q 393 -22 333 -21 l 393 -154 l 463 -154 l 463 -22 q 567 15 517 -15 q 654 92 617 46 q 713 192 692 138 q 733 303 733 247 q 712 414 733 364 q 653 501 690 464 q 568 568 615 539 q 463 622 521 597 l 463 949 q 539 910 508 935 q 590 846 569 886 l 700 908 q 601 1021 663 979 q 463 1069 540 1063 l 463 1194 l 393 1194 l 393 1069 m 393 656 q 299 714 333 679 q 264 806 264 749 q 301 900 264 860 q 393 949 339 940 l 393 656 z "},"%":{"ha":983,"x_min":24,"x_max":961,"o":"m 268 1069 q 175 1051 219 1069 q 97 1000 131 1033 q 43 923 63 967 q 24 831 24 879 q 43 739 24 782 q 97 663 63 696 q 176 611 132 629 q 268 593 219 593 q 361 611 317 593 q 440 663 406 629 q 493 739 474 696 q 513 831 513 782 q 493 923 513 879 q 440 1000 474 967 q 361 1051 406 1033 q 268 1069 317 1069 m 268 986 q 381 940 333 986 q 429 831 429 894 q 381 722 429 768 q 268 676 333 676 q 155 722 203 676 q 107 831 107 768 q 155 940 107 894 q 268 986 203 986 m 767 1069 l 154 13 l 218 -22 l 829 1033 l 767 1069 m 717 454 q 624 436 668 454 q 545 385 579 418 q 492 308 511 351 q 472 215 472 264 q 492 124 472 167 q 546 47 511 81 q 624 -4 581 14 q 717 -22 668 -22 q 810 -4 765 -22 q 888 47 854 14 q 942 124 922 81 q 961 215 961 167 q 942 308 961 264 q 888 385 922 351 q 810 436 854 418 q 717 454 765 454 m 717 371 q 830 325 782 371 q 878 215 878 279 q 830 107 878 153 q 717 61 782 61 q 603 107 651 61 q 556 215 556 153 q 603 325 556 279 q 717 371 651 371 z "},"&":{"ha":961,"x_min":74,"x_max":983,"o":"m 399 517 l 631 233 q 510 131 565 168 q 390 94 456 94 q 319 110 354 94 q 256 153 283 126 q 212 216 228 181 q 196 288 196 251 q 242 394 196 347 q 367 494 288 442 q 386 508 368 496 l 399 517 m 426 681 l 392 725 l 389 729 q 344 794 360 767 q 329 856 329 822 q 363 935 329 904 q 446 967 397 967 q 534 937 500 967 q 568 853 568 907 q 542 777 568 808 q 465 708 515 746 q 443 692 450 697 l 426 681 m 822 0 l 983 0 l 796 232 l 924 382 l 840 468 l 718 326 l 500 590 q 628 700 589 656 q 674 772 657 735 q 690 851 690 810 q 619 1010 690 951 q 449 1069 549 1069 q 275 1008 343 1069 q 207 840 207 946 q 239 722 207 779 q 322 611 271 665 l 257 564 q 120 438 167 499 q 74 286 74 376 q 99 163 74 219 q 168 64 124 106 q 271 0 213 22 q 394 -22 329 -22 q 565 23 483 -22 q 708 142 646 68 l 822 0 z "},"'":{"ha":385,"x_min":125,"x_max":261,"o":"m 125 1047 l 150 592 l 236 592 l 261 1047 l 125 1047 z "},"(":{"ha":406,"x_min":79,"x_max":326,"o":"m 224 1124 q 115 797 151 982 q 79 428 79 611 q 115 60 79 246 q 224 -268 151 -125 l 326 -192 q 235 100 264 -62 q 207 428 207 263 q 235 756 207 593 q 326 1047 264 918 l 224 1124 z "},")":{"ha":406,"x_min":79,"x_max":326,"o":"m 79 1047 q 170 756 142 918 q 199 428 199 593 q 170 100 199 263 q 79 -192 142 -62 l 182 -268 q 290 60 254 -125 q 326 428 326 246 q 290 797 326 611 q 182 1124 254 982 l 79 1047 z "},"*":{"ha":600,"x_min":88,"x_max":513,"o":"m 256 1047 l 256 911 l 132 979 l 89 900 l 206 831 l 88 763 l 135 683 l 256 751 l 256 617 l 351 617 l 351 750 l 464 681 l 513 761 l 394 831 l 513 900 l 464 982 l 351 915 l 351 1047 l 256 1047 z "},"+":{"ha":803,"x_min":46,"x_max":757,"o":"m 342 711 l 342 415 l 46 415 l 46 296 l 342 296 l 342 0 l 461 0 l 461 296 l 757 296 l 757 415 l 461 415 l 461 711 l 342 711 z "},",":{"ha":401,"x_min":75,"x_max":336,"o":"m 228 165 l 75 -217 l 151 -249 l 336 122 l 228 165 z "},"-":{"ha":461,"x_min":79,"x_max":383,"o":"m 79 497 l 79 393 l 383 393 l 383 497 l 79 497 z "},".":{"ha":401,"x_min":121,"x_max":282,"o":"m 201 139 q 144 115 168 139 q 121 58 121 90 q 144 1 121 25 q 201 -22 168 -22 q 258 1 235 -22 q 282 58 282 25 q 258 115 282 90 q 201 139 235 139 z "},"/":{"ha":765,"x_min":44,"x_max":722,"o":"m 622 1206 l 44 -131 l 143 -175 l 722 1161 l 622 1206 z "},":":{"ha":401,"x_min":121,"x_max":282,"o":"m 201 139 q 144 115 168 139 q 121 58 121 90 q 144 1 121 25 q 201 -22 168 -22 q 258 1 235 -22 q 282 58 282 25 q 258 115 282 90 q 201 139 235 139 m 201 669 q 144 645 168 669 q 121 589 121 621 q 144 532 121 556 q 201 508 168 508 q 258 532 235 508 q 282 589 282 556 q 258 645 282 621 q 201 669 235 669 z "},";":{"ha":401,"x_min":64,"x_max":347,"o":"m 217 165 l 64 -217 l 140 -249 l 325 122 l 217 165 m 267 669 q 210 645 233 669 q 186 589 186 621 q 210 532 186 556 q 267 508 233 508 q 324 532 300 508 q 347 589 347 556 q 324 645 347 621 q 267 669 300 669 z "},"<":{"ha":803,"x_min":46,"x_max":757,"o":"m 757 692 l 46 404 l 46 307 l 757 19 l 757 150 l 224 356 l 757 561 l 757 692 z "},"=":{"ha":803,"x_min":46,"x_max":757,"o":"m 46 535 l 46 415 l 757 415 l 757 535 l 46 535 m 46 296 l 46 176 l 757 176 l 757 296 l 46 296 z "},">":{"ha":803,"x_min":46,"x_max":757,"o":"m 46 561 l 579 356 l 46 150 l 46 19 l 757 307 l 757 404 l 46 692 l 46 561 z "},"?":{"ha":629,"x_min":72,"x_max":571,"o":"m 418 479 q 390 403 418 433 q 319 372 363 372 q 250 401 278 372 q 222 472 222 431 q 250 537 222 514 q 324 574 278 560 l 333 576 q 429 610 392 594 q 496 651 467 626 q 551 728 532 682 q 571 824 571 775 q 552 920 571 875 q 499 999 533 965 q 418 1051 464 1033 q 321 1069 372 1069 q 228 1053 274 1069 q 149 1005 183 1036 q 93 929 114 974 q 72 833 72 885 l 75 788 l 206 788 l 204 792 q 197 832 197 817 q 233 916 197 881 q 317 951 268 951 q 408 918 372 951 q 444 828 444 885 q 408 745 444 772 q 294 690 371 718 q 271 682 286 688 q 203 653 232 668 q 149 616 174 639 q 110 559 125 593 q 96 478 96 525 q 113 391 96 432 q 161 319 131 350 q 233 272 192 289 q 319 256 274 256 q 403 273 363 256 q 475 321 443 290 q 526 392 507 351 q 544 479 544 433 l 418 479 m 319 139 q 263 115 286 139 q 239 58 239 90 q 263 1 239 25 q 319 -22 286 -22 q 376 1 353 -22 q 400 58 400 25 q 376 115 400 90 q 319 139 353 139 z "},"@":{"ha":1111,"x_min":50,"x_max":1063,"o":"m 699 517 q 643 377 688 432 q 513 322 599 322 q 412 369 450 322 q 374 481 374 417 q 386 556 374 518 q 424 626 399 594 q 483 675 449 657 q 557 693 517 693 q 661 655 622 693 q 700 549 700 617 q 700 533 700 544 q 699 517 699 524 m 733 703 q 648 778 693 756 q 549 801 603 801 q 433 774 486 801 q 343 700 381 747 q 285 593 306 653 q 265 471 265 533 q 284 372 265 418 q 336 289 303 325 q 411 233 369 253 q 499 214 453 214 q 602 237 557 214 q 688 300 647 260 q 714 238 694 261 q 763 214 733 215 q 874 244 819 214 q 976 335 929 274 q 1040 465 1018 389 q 1063 629 1063 542 q 1022 804 1063 724 q 907 949 981 885 q 756 1040 839 1010 q 581 1069 674 1069 q 374 1028 471 1069 q 205 913 278 988 q 91 739 132 839 q 50 524 50 639 q 92 308 50 408 q 208 133 133 207 q 381 18 282 58 q 589 -22 479 -22 q 793 1 713 -22 q 963 72 874 25 l 858 156 q 600 89 779 89 q 433 121 513 89 q 292 211 353 153 q 196 350 231 269 q 161 524 161 431 q 193 692 161 613 q 282 831 225 771 q 415 925 339 892 q 576 958 490 958 q 724 932 656 958 q 844 856 793 906 q 924 735 896 806 q 951 579 951 665 q 938 481 951 529 q 901 395 924 433 q 851 335 878 357 q 801 313 825 313 q 778 324 785 313 q 771 356 771 336 q 781 425 771 376 l 782 432 l 851 789 l 753 789 l 733 703 z "},"A":{"ha":976,"x_min":-11,"x_max":989,"o":"m 729 263 l 849 0 l 989 0 l 489 1092 l -11 0 l 129 0 l 249 263 l 729 263 m 675 382 l 303 382 l 489 806 l 675 382 z "},"B":{"ha":743,"x_min":89,"x_max":697,"o":"m 219 931 l 256 931 q 346 924 307 931 q 415 899 385 917 q 461 846 444 881 q 478 758 478 811 q 461 669 478 704 q 414 616 444 635 q 344 590 383 597 q 253 583 304 583 l 219 583 l 219 931 m 219 479 l 300 479 q 395 472 350 479 q 480 444 440 464 q 543 390 519 425 q 567 301 567 354 q 546 212 567 249 q 490 154 525 175 q 413 125 456 133 q 319 117 369 117 l 219 117 l 219 479 m 89 0 l 333 0 q 470 17 406 0 q 586 69 535 33 q 667 160 638 104 q 697 293 697 217 q 682 383 697 339 q 638 463 667 426 q 572 525 610 500 q 488 558 533 550 l 488 561 q 569 642 539 585 q 600 760 600 700 q 569 901 600 844 q 485 990 539 958 q 365 1035 432 1022 q 217 1047 297 1047 l 89 1047 l 89 0 z "},"C":{"ha":918,"x_min":42,"x_max":863,"o":"m 863 999 q 738 1052 806 1035 q 599 1069 669 1069 q 383 1028 485 1069 q 205 910 282 986 q 85 733 128 833 q 42 518 42 632 q 84 308 42 407 q 202 135 126 210 q 378 19 278 60 q 588 -22 478 -22 q 730 -3 657 -22 q 863 51 803 17 l 863 206 q 732 125 804 153 q 583 97 660 97 q 422 131 497 97 q 291 224 347 164 q 203 360 235 283 q 172 522 172 438 q 203 686 172 608 q 292 824 235 764 q 424 917 349 883 q 586 950 500 950 q 734 924 661 950 q 863 847 807 897 l 863 999 z "},"D":{"ha":924,"x_min":89,"x_max":893,"o":"m 89 0 l 301 0 q 534 33 426 0 q 723 132 642 65 q 849 299 804 199 q 893 529 893 399 q 848 755 893 657 q 722 917 803 853 q 534 1015 640 982 q 306 1047 428 1047 l 89 1047 l 89 0 m 219 928 l 265 928 q 459 907 369 928 q 617 839 549 886 q 724 713 685 792 q 763 524 763 635 q 724 335 763 414 q 617 210 685 257 q 460 141 549 163 q 265 119 371 119 l 219 119 l 219 928 z "},"E":{"ha":724,"x_min":100,"x_max":663,"o":"m 100 0 l 663 0 l 663 119 l 231 119 l 231 515 l 650 515 l 650 635 l 231 635 l 231 928 l 663 928 l 663 1047 l 100 1047 l 100 0 z "},"F":{"ha":658,"x_min":99,"x_max":606,"o":"m 606 928 l 606 1047 l 99 1047 l 99 0 l 229 0 l 229 514 l 593 514 l 593 633 l 229 633 l 229 928 l 606 928 z "},"G":{"ha":1083,"x_min":29,"x_max":1054,"o":"m 639 528 l 639 408 l 910 408 q 878 290 908 346 q 798 190 847 233 q 688 122 749 146 q 567 97 628 97 q 410 133 485 97 q 278 229 335 168 q 191 367 222 290 q 160 525 160 444 q 192 689 160 611 q 281 826 224 767 q 415 917 338 885 q 578 950 492 950 q 761 903 672 950 q 907 779 850 857 l 999 867 q 809 1016 922 963 q 572 1069 696 1069 q 362 1027 461 1069 q 188 908 263 985 q 71 732 113 832 q 29 521 29 632 q 70 315 29 414 q 184 140 111 217 q 354 21 257 64 q 558 -22 451 -22 q 757 16 665 -22 q 915 124 849 54 q 1018 286 982 193 q 1054 486 1054 379 l 1054 528 l 639 528 z "},"H":{"ha":938,"x_min":89,"x_max":849,"o":"m 219 625 l 219 1047 l 89 1047 l 89 0 l 219 0 l 219 503 l 718 503 l 718 0 l 849 0 l 849 1047 l 718 1047 l 718 625 l 219 625 z "},"I":{"ha":322,"x_min":96,"x_max":226,"o":"m 226 1047 l 96 1047 l 96 0 l 226 0 l 226 1047 z "},"J":{"ha":503,"x_min":-26,"x_max":421,"o":"m 290 1047 l 290 382 q 287 278 290 322 q 269 192 283 233 q 225 126 256 151 q 143 100 194 100 q 39 135 85 100 l -26 24 q 138 -22 51 -22 q 282 11 225 -22 q 369 101 339 44 q 410 226 399 157 q 421 382 421 296 l 421 1047 l 290 1047 z "},"K":{"ha":833,"x_min":100,"x_max":854,"o":"m 231 593 l 231 1047 l 100 1047 l 100 0 l 231 0 l 231 438 l 283 488 l 678 0 l 854 0 l 375 576 l 846 1047 l 675 1047 l 231 593 z "},"L":{"ha":535,"x_min":100,"x_max":549,"o":"m 231 1047 l 100 1047 l 100 0 l 549 0 l 549 119 l 231 119 l 231 1047 z "},"M":{"ha":1182,"x_min":18,"x_max":1165,"o":"m 592 -22 l 906 692 l 908 692 l 1031 0 l 1165 0 l 951 1092 l 592 267 l 232 1092 l 18 0 l 153 0 l 275 692 l 278 692 l 592 -22 z "},"N":{"ha":1090,"x_min":88,"x_max":1004,"o":"m 88 0 l 218 0 l 218 781 l 1004 -43 l 1004 1047 l 874 1047 l 874 274 l 88 1097 l 88 0 z "},"O":{"ha":1150,"x_min":26,"x_max":1124,"o":"m 575 1069 q 364 1027 464 1069 q 188 909 264 985 q 69 733 113 833 q 26 524 26 633 q 69 309 26 410 q 187 134 111 208 q 363 19 263 60 q 575 -22 463 -22 q 788 19 688 -22 q 963 134 888 60 q 1081 309 1039 208 q 1124 524 1124 410 q 1081 733 1124 633 q 962 909 1038 833 q 786 1027 886 985 q 575 1069 686 1069 m 575 100 q 415 132 490 100 q 281 222 339 164 q 190 358 222 281 q 157 524 157 436 q 188 687 157 610 q 274 823 218 764 q 408 915 331 882 q 575 947 485 947 q 742 915 665 947 q 876 823 819 882 q 963 687 932 764 q 993 524 993 610 q 960 358 993 436 q 869 222 928 281 q 735 132 811 164 q 575 100 660 100 z "},"P":{"ha":688,"x_min":100,"x_max":672,"o":"m 231 439 l 306 439 q 449 456 383 439 q 565 510 515 474 q 644 606 615 547 q 672 744 672 664 q 651 875 672 819 q 581 969 629 931 q 451 1027 532 1007 q 250 1047 369 1047 l 100 1047 l 100 0 l 231 0 l 231 439 m 231 931 l 265 931 q 370 924 322 931 q 459 899 418 918 q 525 843 500 881 q 550 747 550 806 q 527 649 550 688 q 465 591 504 611 q 378 563 425 571 q 272 556 331 556 l 231 556 l 231 931 z "},"Q":{"ha":1150,"x_min":26,"x_max":1124,"o":"m 1122 -22 l 960 138 q 1081 312 1038 211 q 1124 524 1124 413 q 1081 733 1124 633 q 962 909 1038 833 q 786 1027 886 985 q 575 1069 686 1069 q 364 1027 464 1069 q 188 909 264 985 q 69 733 113 833 q 26 524 26 633 q 69 309 26 410 q 187 134 111 208 q 363 19 263 60 q 575 -22 463 -22 q 731 2 651 -22 q 874 71 810 26 l 964 -22 l 1122 -22 m 706 394 l 543 394 l 783 160 q 681 115 738 131 q 575 100 625 100 q 415 132 490 100 q 281 222 339 164 q 190 358 222 281 q 157 524 157 436 q 188 687 157 610 q 274 823 218 764 q 408 915 331 882 q 575 947 485 947 q 742 915 665 947 q 876 823 819 882 q 963 687 932 764 q 993 524 993 610 q 961 363 993 444 q 871 231 929 282 l 706 394 z "},"R":{"ha":754,"x_min":100,"x_max":751,"o":"m 421 456 q 603 552 533 469 q 672 749 672 635 q 635 893 672 825 q 535 999 599 961 q 415 1039 479 1031 q 258 1047 350 1047 l 100 1047 l 100 0 l 231 0 l 231 443 l 285 443 l 593 0 l 751 0 l 421 456 m 231 931 l 265 931 q 369 924 321 931 q 459 897 418 917 q 525 840 500 878 q 550 743 550 801 q 527 645 550 683 q 465 587 504 607 q 378 559 425 567 q 272 551 331 551 l 231 551 l 231 931 z "},"S":{"ha":746,"x_min":44,"x_max":703,"o":"m 669 911 q 557 1028 626 988 q 400 1069 488 1069 q 285 1051 340 1069 q 185 997 229 1032 q 117 910 142 961 q 92 799 92 860 q 110 705 92 746 q 159 633 128 664 q 229 578 190 601 q 319 533 268 556 l 392 503 q 462 469 431 486 q 515 432 493 453 q 572 304 572 381 q 517 160 572 221 q 379 100 463 100 q 235 156 294 100 q 176 299 176 213 l 44 271 q 81 155 53 208 q 151 61 108 101 q 250 -1 194 21 q 368 -22 306 -22 q 499 1 438 -22 q 606 69 560 25 q 677 174 651 114 q 703 304 703 235 q 684 417 703 368 q 631 503 665 467 q 549 568 596 540 q 443 619 503 596 l 368 649 q 264 708 306 672 q 222 799 222 743 q 276 906 222 864 q 397 947 331 947 q 496 923 456 947 q 565 849 536 899 l 669 911 z "},"T":{"ha":633,"x_min":3,"x_max":631,"o":"m 382 928 l 631 928 l 631 1047 l 3 1047 l 3 928 l 251 928 l 251 0 l 382 0 l 382 928 z "},"U":{"ha":929,"x_min":82,"x_max":849,"o":"m 82 1047 l 82 385 q 108 224 82 299 q 185 94 135 150 q 306 8 235 39 q 465 -22 376 -22 q 626 8 554 -22 q 747 94 697 39 q 822 224 796 149 q 849 385 849 299 l 849 1047 l 718 1047 l 718 429 q 706 302 718 360 q 666 199 694 244 q 588 126 638 153 q 465 100 538 100 q 343 126 393 100 q 265 199 293 153 q 224 302 236 244 q 213 429 213 360 l 213 1047 l 82 1047 z "},"V":{"ha":889,"x_min":-10,"x_max":900,"o":"m 133 1047 l -10 1047 l 446 -56 l 900 1047 l 757 1047 l 446 272 l 133 1047 z "},"W":{"ha":1426,"x_min":-17,"x_max":1444,"o":"m 125 1047 l -17 1047 l 418 -42 l 714 726 l 1010 -42 l 1444 1047 l 1303 1047 l 1010 297 l 714 1069 l 418 297 l 125 1047 z "},"X":{"ha":797,"x_min":0,"x_max":796,"o":"m 329 549 l 0 0 l 146 0 l 403 429 l 650 0 l 796 0 l 478 549 l 779 1047 l 631 1047 l 403 665 l 189 1047 l 40 1047 l 329 549 z "},"Y":{"ha":796,"x_min":-8,"x_max":806,"o":"m 333 456 l 333 0 l 464 0 l 464 456 l 806 1047 l 656 1047 l 399 600 l 142 1047 l -8 1047 l 333 456 z "},"Z":{"ha":767,"x_min":13,"x_max":756,"o":"m 225 119 l 756 1047 l 88 1047 l 88 928 l 543 928 l 13 0 l 756 0 l 756 119 l 225 119 z "},"[":{"ha":432,"x_min":85,"x_max":349,"o":"m 213 1007 l 349 1007 l 349 1124 l 85 1124 l 85 -268 l 349 -268 l 349 -151 l 213 -151 l 213 1007 z "},"\\":{"ha":765,"x_min":43,"x_max":721,"o":"m 43 1206 l 604 0 l 721 0 l 160 1206 l 43 1206 z "},"]":{"ha":432,"x_min":83,"x_max":347,"o":"m 219 -151 l 83 -151 l 83 -268 l 347 -268 l 347 1124 l 83 1124 l 83 1007 l 219 1007 l 219 -151 z "},"^":{"ha":803,"x_min":46,"x_max":757,"o":"m 46 428 l 175 428 l 401 931 l 626 428 l 757 428 l 479 1047 l 324 1047 l 46 428 z "},"_":{"ha":694,"x_min":0,"x_max":694,"o":"m 694 -104 l 0 -104 l 0 -174 l 694 -174 l 694 -104 z "},"`":{"ha":500,"x_min":106,"x_max":394,"o":"m 106 958 l 333 751 l 394 789 l 221 1019 l 106 958 z "},"a":{"ha":772,"x_min":36,"x_max":696,"o":"m 367 89 q 217 158 272 89 q 161 325 161 228 q 217 490 161 421 q 367 558 274 558 q 521 491 464 558 q 578 325 578 424 q 522 157 578 225 q 367 89 465 89 m 696 650 l 571 650 l 571 542 l 568 542 q 472 635 529 601 q 343 669 414 669 q 217 642 274 669 q 119 567 160 615 q 58 458 79 519 q 36 329 36 396 q 57 196 36 260 q 118 83 78 132 q 217 6 158 33 q 347 -22 275 -22 q 472 11 415 -22 q 568 101 529 44 l 571 101 l 571 0 l 696 0 l 696 650 z "},"b":{"ha":772,"x_min":76,"x_max":736,"o":"m 400 89 q 250 158 306 89 q 194 325 194 228 q 251 490 194 421 q 400 558 307 558 q 554 491 497 558 q 611 325 611 424 q 555 157 611 225 q 400 89 499 89 m 76 0 l 201 0 l 201 101 l 204 101 q 301 11 243 44 q 425 -22 358 -22 q 556 6 497 -22 q 655 82 615 33 q 715 194 694 131 q 736 329 736 258 q 715 458 736 396 q 653 567 693 519 q 556 642 613 614 q 431 669 499 669 q 302 635 360 669 q 204 542 244 601 l 201 542 l 201 1206 l 76 1206 l 76 0 z "},"c":{"ha":613,"x_min":36,"x_max":564,"o":"m 564 626 q 483 658 528 647 q 392 669 438 669 q 253 644 318 669 q 139 570 188 618 q 63 458 90 522 q 36 319 36 394 q 63 185 36 247 q 138 76 90 122 q 250 3 186 29 q 385 -22 314 -22 q 564 21 483 -22 l 564 181 q 386 94 488 94 q 224 160 288 94 q 161 325 161 225 q 178 410 161 369 q 224 483 194 451 q 294 534 254 515 q 378 553 333 553 q 564 465 488 553 l 564 626 z "},"d":{"ha":772,"x_min":36,"x_max":696,"o":"m 367 89 q 217 158 272 89 q 161 325 161 228 q 217 490 161 421 q 367 558 274 558 q 521 491 464 558 q 578 325 578 424 q 522 157 578 225 q 367 89 465 89 m 571 0 l 696 0 l 696 1206 l 571 1206 l 571 542 l 568 542 q 470 635 528 601 q 342 669 413 669 q 217 642 274 669 q 119 567 160 614 q 58 458 79 519 q 36 329 36 396 q 57 195 36 258 q 118 83 78 132 q 217 6 158 33 q 347 -22 275 -22 q 472 11 414 -22 q 568 101 529 44 l 571 101 l 571 0 z "},"e":{"ha":678,"x_min":36,"x_max":657,"o":"m 657 304 l 657 324 q 579 573 657 476 q 353 669 501 669 q 118 572 200 669 q 36 319 36 475 q 58 185 36 247 q 122 76 81 122 q 223 3 164 29 q 356 -22 282 -22 q 531 25 451 -22 q 657 156 611 72 l 551 215 q 469 120 513 151 q 357 89 425 89 q 217 153 271 89 q 161 304 163 217 l 657 304 m 168 399 q 230 515 179 469 q 353 561 281 561 q 474 517 426 561 q 532 399 521 474 l 168 399 z "},"f":{"ha":382,"x_min":54,"x_max":408,"o":"m 408 1206 q 321 1222 367 1222 q 222 1203 263 1222 q 156 1149 181 1183 q 122 1068 132 1114 q 111 967 111 1022 l 111 650 l 54 650 l 54 533 l 111 533 l 111 0 l 236 0 l 236 533 l 408 533 l 408 650 l 236 650 l 236 929 q 238 991 236 964 q 249 1044 240 1018 q 276 1088 257 1071 q 325 1106 294 1106 q 359 1099 340 1106 q 403 1082 378 1093 l 408 1079 l 408 1206 z "},"g":{"ha":771,"x_min":35,"x_max":694,"o":"m 365 89 q 215 158 271 89 q 160 325 160 228 q 216 490 160 421 q 365 558 272 558 q 519 491 463 558 q 576 325 576 424 q 520 157 576 225 q 365 89 464 89 m 694 650 l 569 650 l 569 539 l 567 539 q 469 635 526 601 q 340 669 411 669 q 215 642 272 669 q 118 567 158 614 q 56 458 78 519 q 35 329 35 396 q 56 195 35 258 q 117 83 76 132 q 215 6 157 33 q 346 -22 274 -22 q 470 11 413 -22 q 567 101 528 44 l 569 101 l 569 -22 q 561 -119 569 -76 q 533 -193 553 -161 q 476 -243 513 -225 q 383 -261 439 -261 q 242 -212 296 -261 q 189 -78 189 -164 l 64 -78 q 153 -293 67 -214 q 378 -372 240 -372 q 532 -344 469 -372 q 630 -266 594 -317 q 680 -146 665 -215 q 694 13 694 -76 l 694 650 z "},"h":{"ha":726,"x_min":86,"x_max":640,"o":"m 86 1206 l 86 0 l 211 0 l 211 299 q 215 400 211 360 q 233 477 218 440 q 281 536 247 514 q 372 558 315 558 q 488 513 461 558 q 515 372 515 468 l 515 0 l 640 0 l 640 388 q 630 501 640 450 q 593 590 619 551 q 522 649 567 628 q 410 669 476 669 q 295 642 349 669 q 214 563 242 614 l 211 563 l 211 1206 l 86 1206 z "},"i":{"ha":353,"x_min":90,"x_max":263,"o":"m 239 650 l 114 650 l 114 0 l 239 0 l 239 650 m 176 1035 q 115 1009 140 1035 q 90 947 90 983 q 115 888 90 913 q 176 863 140 863 q 238 888 213 863 q 263 947 263 913 q 238 1009 263 983 q 176 1035 213 1035 z "},"j":{"ha":353,"x_min":90,"x_max":263,"o":"m 239 650 l 114 650 l 114 -372 l 239 -372 l 239 650 m 176 1035 q 115 1009 140 1035 q 90 947 90 983 q 115 888 90 913 q 176 863 140 863 q 238 888 213 863 q 263 947 263 913 q 238 1009 263 983 q 176 1035 213 1035 z "},"k":{"ha":642,"x_min":94,"x_max":657,"o":"m 219 1206 l 94 1206 l 94 0 l 219 0 l 219 253 l 263 296 l 494 0 l 657 0 l 351 381 l 629 650 l 464 650 l 219 406 l 219 1206 z "},"l":{"ha":308,"x_min":92,"x_max":217,"o":"m 217 1206 l 92 1206 l 92 0 l 217 0 l 217 1206 z "},"m":{"ha":1065,"x_min":82,"x_max":985,"o":"m 207 650 l 82 650 l 82 0 l 207 0 l 207 319 q 212 405 207 365 q 231 480 217 444 q 274 537 244 515 q 351 558 304 558 q 417 538 392 558 q 453 486 442 518 q 468 420 465 454 q 471 344 471 386 l 471 0 l 596 0 l 596 319 q 600 406 596 367 q 619 481 604 446 q 663 537 633 515 q 739 558 692 558 q 802 542 778 558 q 839 497 826 525 q 856 438 851 469 q 860 368 860 406 l 860 0 l 985 0 l 985 389 q 974 498 985 449 q 940 586 964 547 q 873 647 915 625 q 769 669 831 669 q 654 638 708 669 q 569 554 600 607 q 490 640 538 610 q 382 669 443 669 q 284 641 331 669 q 210 568 238 613 l 207 568 l 207 650 z "},"n":{"ha":726,"x_min":86,"x_max":640,"o":"m 211 650 l 86 650 l 86 0 l 211 0 l 211 299 q 215 400 211 360 q 233 477 218 440 q 281 536 247 514 q 372 558 315 558 q 488 513 461 558 q 515 372 515 468 l 515 0 l 640 0 l 640 388 q 630 501 640 450 q 593 590 619 551 q 522 649 567 628 q 410 669 476 669 q 295 642 349 669 q 214 563 242 614 l 211 563 l 211 650 z "},"o":{"ha":750,"x_min":28,"x_max":722,"o":"m 375 669 q 240 643 304 669 q 128 569 176 617 q 54 459 81 522 q 28 324 28 396 q 54 188 28 251 q 128 78 81 125 q 240 4 176 31 q 375 -22 304 -22 q 510 4 447 -22 q 622 78 574 31 q 696 188 669 125 q 722 324 722 251 q 696 459 722 396 q 622 569 669 522 q 510 643 574 617 q 375 669 447 669 m 375 550 q 461 533 421 550 q 533 483 501 515 q 581 410 564 451 q 597 324 597 369 q 580 238 597 279 q 532 165 563 196 q 461 115 501 133 q 375 97 421 97 q 289 115 329 97 q 218 165 249 133 q 170 238 188 196 q 153 324 153 279 q 170 410 153 369 q 218 483 188 451 q 290 533 249 515 q 375 550 331 550 z "},"p":{"ha":772,"x_min":76,"x_max":736,"o":"m 400 89 q 250 158 306 89 q 194 325 194 228 q 251 490 194 421 q 400 558 307 558 q 554 491 497 558 q 611 325 611 424 q 555 157 611 225 q 400 89 499 89 m 201 650 l 76 650 l 76 -372 l 201 -372 l 201 101 l 204 101 q 301 11 243 44 q 425 -22 358 -22 q 556 6 497 -22 q 655 82 615 33 q 715 194 694 131 q 736 329 736 258 q 715 458 736 396 q 653 567 693 519 q 556 642 613 614 q 431 669 499 669 q 302 635 360 669 q 204 542 244 601 l 201 542 l 201 650 z "},"q":{"ha":772,"x_min":36,"x_max":696,"o":"m 367 89 q 217 158 272 89 q 161 325 161 228 q 217 490 161 421 q 367 558 274 558 q 521 491 464 558 q 578 325 578 424 q 522 157 578 225 q 367 89 465 89 m 696 650 l 571 650 l 571 542 l 568 542 q 470 635 528 601 q 342 669 413 669 q 217 642 274 669 q 119 567 160 614 q 58 458 79 519 q 36 329 36 396 q 57 195 36 258 q 118 83 78 132 q 217 6 158 33 q 347 -22 275 -22 q 472 11 414 -22 q 568 101 529 44 l 571 101 l 571 -372 l 696 -372 l 696 650 z "},"r":{"ha":488,"x_min":94,"x_max":504,"o":"m 219 650 l 94 650 l 94 0 l 219 0 l 219 319 q 225 405 219 365 q 246 477 231 444 q 292 530 261 510 q 371 550 322 550 q 447 524 417 550 l 504 638 q 401 669 454 669 q 294 636 340 669 q 224 544 247 603 l 219 544 l 219 650 z "},"s":{"ha":533,"x_min":49,"x_max":497,"o":"m 449 556 q 376 640 422 610 q 271 669 329 669 q 135 615 192 669 q 79 481 79 560 q 110 385 79 419 q 204 317 140 351 l 326 251 q 362 220 351 235 q 372 181 372 206 q 344 115 372 140 q 274 89 315 89 q 205 110 232 89 q 156 172 178 132 l 49 124 q 138 17 74 57 q 274 -22 201 -22 q 359 -6 318 -22 q 431 39 400 10 q 480 108 463 68 q 497 193 497 147 q 457 304 497 263 q 347 378 417 346 q 319 390 338 382 q 226 440 256 418 q 196 494 196 461 q 217 540 196 521 q 264 558 238 558 q 313 542 290 558 q 347 501 336 526 l 449 556 z "},"t":{"ha":333,"x_min":36,"x_max":351,"o":"m 229 533 l 351 533 l 351 650 l 229 650 l 229 899 l 104 899 l 104 650 l 36 650 l 36 533 l 104 533 l 104 0 l 229 0 l 229 533 z "},"u":{"ha":711,"x_min":81,"x_max":631,"o":"m 81 650 l 81 276 q 149 58 81 138 q 356 -22 217 -22 q 563 58 494 -22 q 631 276 631 138 l 631 650 l 506 650 l 506 290 q 499 213 506 247 q 476 152 493 179 q 430 110 460 125 q 356 94 400 94 q 281 110 311 94 q 235 152 251 125 q 212 213 218 179 q 206 290 206 247 l 206 650 l 81 650 z "},"v":{"ha":618,"x_min":-18,"x_max":636,"o":"m 122 650 l -18 650 l 308 -22 l 636 650 l 496 650 l 308 244 l 122 650 z "},"w":{"ha":997,"x_min":-22,"x_max":1021,"o":"m 119 650 l -22 650 l 308 -22 l 500 413 l 690 -22 l 1021 650 l 879 650 l 690 236 l 500 686 l 308 236 l 119 650 z "},"x":{"ha":679,"x_min":-19,"x_max":699,"o":"m 271 353 l -19 0 l 132 0 l 339 264 l 553 0 l 699 0 l 419 353 l 658 650 l 507 650 l 339 440 l 185 650 l 38 650 l 271 353 z "},"y":{"ha":672,"x_min":-18,"x_max":692,"o":"m 279 111 l 24 -372 l 165 -372 l 692 650 l 551 650 l 347 238 l 128 650 l -18 650 l 279 111 z "},"z":{"ha":688,"x_min":3,"x_max":686,"o":"m 246 117 l 686 650 l 78 650 l 78 533 l 443 533 l 3 0 l 668 0 l 668 117 l 246 117 z "},"{":{"ha":464,"x_min":67,"x_max":397,"o":"m 67 376 q 171 167 171 331 l 171 -86 q 183 -160 171 -126 q 213 -219 194 -194 q 253 -256 232 -243 q 289 -269 274 -269 l 397 -269 l 397 -153 l 342 -153 q 306 -132 313 -153 q 299 -67 299 -111 l 299 189 q 286 288 299 244 q 256 360 274 331 q 221 404 238 389 q 193 426 204 419 q 222 450 206 435 q 256 494 238 465 q 286 567 274 524 q 299 665 299 610 l 299 921 q 306 986 299 965 q 342 1007 313 1007 l 397 1007 l 397 1124 l 289 1124 q 253 1110 274 1124 q 213 1072 232 1097 q 183 1014 194 1047 q 171 940 171 981 l 171 688 q 67 478 171 524 l 67 376 z "},"|":{"ha":792,"x_min":336,"x_max":456,"o":"m 456 1092 l 336 1092 l 336 -297 l 456 -297 l 456 1092 z "},"}":{"ha":464,"x_min":67,"x_max":397,"o":"m 397 478 q 293 688 293 524 l 293 940 q 281 1015 293 981 q 251 1073 269 1049 q 212 1110 232 1097 q 175 1124 192 1124 l 67 1124 l 67 1007 l 122 1007 q 158 986 151 1007 q 165 921 165 965 l 165 665 q 178 567 165 610 q 209 494 190 524 q 243 450 228 465 q 271 426 258 435 q 244 404 260 419 q 209 360 228 389 q 178 288 190 331 q 165 189 165 244 l 165 -67 q 158 -132 165 -111 q 122 -153 151 -153 l 67 -153 l 67 -269 l 175 -269 q 212 -256 192 -269 q 251 -218 232 -243 q 281 -160 269 -193 q 293 -86 293 -126 l 293 167 q 397 376 293 331 l 397 478 z "},"~":{"ha":803,"x_min":46,"x_max":757,"o":"m 664 464 q 654 447 663 463 q 599 368 621 392 q 544 344 578 344 q 507 356 526 344 q 454 394 488 368 q 428 415 439 407 q 344 467 385 449 q 258 486 304 486 q 151 444 196 486 q 54 326 106 403 q 46 315 49 319 l 133 253 q 199 340 169 313 q 261 367 228 367 q 297 355 276 367 q 357 317 318 343 q 386 296 379 300 q 474 244 436 263 q 546 225 511 225 q 666 274 614 225 q 757 394 718 322 l 664 464 z "},"‚":{"ha":385,"x_min":75,"x_max":336,"o":"m 228 165 l 75 -217 l 151 -249 l 336 122 l 228 165 z "},"ƒ":{"ha":803,"x_min":19,"x_max":750,"o":"m 493 701 l 524 858 l 525 861 q 541 937 533 908 q 564 990 549 965 q 605 1030 579 1015 q 671 1044 631 1044 q 728 1035 703 1044 l 750 1151 q 667 1161 713 1161 q 551 1140 599 1161 q 472 1081 503 1119 q 422 992 440 1042 q 393 874 404 942 l 364 701 l 267 701 l 254 607 l 344 607 l 271 179 l 269 174 q 248 65 258 107 q 217 -12 238 24 q 160 -67 197 -47 q 67 -87 124 -87 l 40 -87 l 19 -207 l 53 -207 q 213 -178 150 -207 q 310 -99 275 -150 q 365 17 346 -47 q 401 186 383 82 l 478 607 l 660 607 l 672 701 l 493 701 z "},"„":{"ha":610,"x_min":69,"x_max":561,"o":"m 222 165 l 69 -217 l 146 -249 l 331 122 l 222 165 m 453 165 l 300 -217 l 376 -249 l 561 122 l 453 165 z "},"…":{"ha":1389,"x_min":150,"x_max":1239,"o":"m 694 139 q 638 115 661 139 q 614 58 614 90 q 638 1 614 25 q 694 -22 661 -22 q 751 1 728 -22 q 775 58 775 25 q 751 115 775 90 q 694 139 728 139 m 1158 139 q 1101 115 1125 139 q 1078 58 1078 90 q 1101 1 1078 25 q 1158 -22 1125 -22 q 1215 1 1192 -22 q 1239 58 1239 25 q 1215 115 1239 90 q 1158 139 1192 139 m 231 139 q 174 115 197 139 q 150 58 150 90 q 174 1 150 25 q 231 -22 197 -22 q 288 1 264 -22 q 311 58 311 25 q 288 115 311 90 q 231 139 264 139 z "},"†":{"ha":803,"x_min":88,"x_max":715,"o":"m 339 1206 l 339 824 l 88 824 l 88 704 l 339 704 l 339 -122 l 464 -122 l 464 704 l 715 704 l 715 824 l 464 824 l 464 1206 l 339 1206 z "},"‡":{"ha":803,"x_min":88,"x_max":715,"o":"m 339 1206 l 339 874 l 88 874 l 88 754 l 339 754 l 339 585 l 88 585 l 88 465 l 339 465 l 339 -121 l 464 -121 l 464 465 l 715 465 l 715 585 l 464 585 l 464 754 l 715 754 l 715 874 l 464 874 l 464 1206 l 339 1206 z "},"ˆ":{"ha":653,"x_min":104,"x_max":549,"o":"m 104 818 l 185 754 l 325 888 l 467 754 l 549 818 l 325 1019 l 104 818 z "},"‰":{"ha":1542,"x_min":31,"x_max":1513,"o":"m 275 1069 q 182 1051 226 1069 q 103 1000 138 1033 q 50 923 69 967 q 31 831 31 879 q 50 739 31 782 q 104 663 69 696 q 183 611 139 629 q 275 593 226 593 q 368 611 324 593 q 447 663 413 629 q 500 739 481 696 q 519 831 519 782 q 500 923 519 879 q 447 1000 481 967 q 368 1051 413 1033 q 275 1069 324 1069 m 275 986 q 388 940 340 986 q 436 831 436 894 q 388 722 436 768 q 275 676 340 676 q 162 722 210 676 q 114 831 114 768 q 162 940 114 894 q 275 986 210 986 m 774 1069 l 161 13 l 225 -22 l 836 1033 l 774 1069 m 724 454 q 631 436 675 454 q 552 385 586 418 q 499 308 518 351 q 479 215 479 264 q 499 124 479 167 q 553 47 518 81 q 631 -4 588 14 q 724 -22 675 -22 q 817 -4 772 -22 q 895 47 861 14 q 949 124 929 81 q 968 215 968 167 q 949 308 968 264 q 895 385 929 351 q 817 436 861 418 q 724 454 772 454 m 724 371 q 837 325 789 371 q 885 215 885 279 q 837 107 885 153 q 724 61 789 61 q 610 107 658 61 q 563 215 563 153 q 610 325 563 279 q 724 371 658 371 m 1268 454 q 1175 436 1219 454 q 1097 385 1131 418 q 1043 308 1063 351 q 1024 215 1024 264 q 1043 124 1024 167 q 1097 47 1063 81 q 1176 -4 1132 14 q 1268 -22 1219 -22 q 1361 -4 1317 -22 q 1440 47 1406 14 q 1493 124 1474 81 q 1513 215 1513 167 q 1493 308 1513 264 q 1440 385 1474 351 q 1361 436 1406 418 q 1268 454 1317 454 m 1268 371 q 1381 325 1333 371 q 1429 215 1429 279 q 1381 107 1429 153 q 1268 61 1333 61 q 1155 107 1203 61 q 1107 215 1107 153 q 1155 325 1107 279 q 1268 371 1203 371 z "},"Š":{"ha":746,"x_min":44,"x_max":703,"o":"m 165 1318 l 386 1117 l 610 1318 l 528 1382 l 386 1249 l 246 1382 l 165 1318 m 669 911 q 557 1028 626 988 q 400 1069 488 1069 q 285 1051 340 1069 q 185 997 229 1032 q 117 910 142 961 q 92 799 92 860 q 110 705 92 746 q 159 633 128 664 q 229 578 190 601 q 319 533 268 556 l 392 503 q 462 469 431 486 q 515 432 493 453 q 572 304 572 381 q 517 160 572 221 q 379 100 463 100 q 235 156 294 100 q 176 299 176 213 l 44 271 q 81 155 53 208 q 151 61 108 101 q 250 -1 194 21 q 368 -22 306 -22 q 499 1 438 -22 q 606 69 560 25 q 677 174 651 114 q 703 304 703 235 q 684 417 703 368 q 631 503 665 467 q 549 568 596 540 q 443 619 503 596 l 368 649 q 264 708 306 672 q 222 799 222 743 q 276 906 222 864 q 397 947 331 947 q 496 923 456 947 q 565 849 536 899 l 669 911 z "},"‹":{"ha":467,"x_min":31,"x_max":361,"o":"m 154 444 l 361 721 l 283 778 l 31 444 l 283 122 l 361 179 l 154 444 z "},"Œ":{"ha":1588,"x_min":26,"x_max":1546,"o":"m 997 0 l 1546 0 l 1546 119 l 1115 119 l 1115 515 l 1533 515 l 1533 635 l 1115 635 l 1115 928 l 1546 928 l 1546 1047 l 997 1047 l 997 864 l 994 864 q 814 1013 928 960 q 575 1069 700 1065 q 364 1027 464 1069 q 188 909 264 985 q 69 733 113 833 q 26 524 26 633 q 69 309 26 410 q 187 134 111 208 q 363 19 263 60 q 575 -22 463 -22 q 815 29 704 -22 q 994 175 925 81 l 997 175 l 997 0 m 575 100 q 415 132 490 100 q 281 222 339 164 q 190 358 222 281 q 157 524 157 436 q 188 687 157 610 q 274 823 218 764 q 408 915 331 882 q 575 947 485 947 q 742 915 665 947 q 876 823 819 882 q 963 687 932 764 q 993 524 993 610 q 960 358 993 436 q 869 222 928 281 q 735 132 811 164 q 575 100 660 100 z "},"‘":{"ha":385,"x_min":83,"x_max":346,"o":"m 193 656 l 346 1038 l 268 1069 l 83 699 l 193 656 z "},"’":{"ha":385,"x_min":39,"x_max":301,"o":"m 192 1069 l 39 688 l 117 656 l 301 1026 l 192 1069 z "},"“":{"ha":610,"x_min":83,"x_max":576,"o":"m 424 656 l 576 1038 l 499 1069 l 314 699 l 424 656 m 193 656 l 346 1038 l 268 1069 l 83 699 l 193 656 z "},"”":{"ha":610,"x_min":33,"x_max":526,"o":"m 186 1069 l 33 688 l 111 656 l 296 1026 l 186 1069 m 417 1069 l 264 688 l 342 656 l 526 1026 l 417 1069 z "},"•":{"ha":803,"x_min":140,"x_max":664,"o":"m 401 263 q 502 283 454 263 q 586 338 550 303 q 643 422 622 374 q 664 524 664 469 q 644 626 664 578 q 588 710 624 674 q 503 766 551 746 q 401 786 456 786 q 301 766 349 786 q 217 710 253 746 q 160 626 181 674 q 140 524 140 578 q 160 422 140 469 q 217 339 181 375 q 301 283 253 303 q 401 263 349 263 z "},"–":{"ha":694,"x_min":0,"x_max":694,"o":"m 0 497 l 0 393 l 694 393 l 694 497 l 0 497 z "},"—":{"ha":1389,"x_min":181,"x_max":1208,"o":"m 181 497 l 181 393 l 1208 393 l 1208 497 l 181 497 z "},"˜":{"ha":708,"x_min":89,"x_max":621,"o":"m 154 796 q 188 840 167 821 q 233 860 210 860 q 333 829 267 860 l 342 825 q 405 798 379 807 q 457 789 431 789 q 553 820 511 789 q 621 903 596 851 l 556 957 q 516 909 538 928 q 467 890 494 890 q 368 928 436 890 l 367 928 q 243 964 300 964 q 161 937 193 964 q 93 858 129 910 l 89 851 l 154 796 z "},"™":{"ha":1306,"x_min":47,"x_max":1258,"o":"m 1258 1047 l 1114 1047 l 940 635 l 772 1047 l 626 1047 l 626 463 l 715 463 l 715 958 l 718 958 l 913 463 l 967 463 l 1167 958 l 1169 958 l 1169 463 l 1258 463 l 1258 1047 m 519 1047 l 47 1047 l 47 958 l 239 958 l 239 463 l 328 463 l 328 958 l 519 958 l 519 1047 z "},"š":{"ha":533,"x_min":44,"x_max":497,"o":"m 44 956 l 265 754 l 489 956 l 407 1019 l 265 886 l 125 1019 l 44 956 m 449 556 q 376 640 422 610 q 271 669 329 669 q 135 615 192 669 q 79 481 79 560 q 110 385 79 419 q 204 317 140 351 l 326 251 q 362 220 351 235 q 372 181 372 206 q 344 115 372 140 q 274 89 315 89 q 205 110 232 89 q 156 172 178 132 l 49 124 q 138 17 74 57 q 274 -22 201 -22 q 359 -6 318 -22 q 431 39 400 10 q 480 108 463 68 q 497 193 497 147 q 457 304 497 263 q 347 378 417 346 q 319 390 338 382 q 226 440 256 418 q 196 494 196 461 q 217 540 196 521 q 264 558 238 558 q 313 542 290 558 q 347 501 336 526 l 449 556 z "},"›":{"ha":467,"x_min":106,"x_max":436,"o":"m 106 179 l 183 122 l 436 444 l 183 778 l 106 721 l 313 444 l 106 179 z "},"œ":{"ha":1246,"x_min":28,"x_max":1225,"o":"m 735 399 q 797 515 746 469 q 919 561 847 561 q 1040 517 993 561 q 1099 399 1088 474 l 735 399 m 375 550 q 461 533 421 550 q 533 483 501 515 q 581 410 564 451 q 597 324 597 369 q 580 238 597 279 q 532 165 563 196 q 461 115 501 133 q 375 97 421 97 q 289 115 329 97 q 218 165 249 133 q 170 238 188 196 q 153 324 153 279 q 170 410 153 369 q 218 483 188 451 q 290 533 249 515 q 375 550 331 550 m 1225 304 l 1225 324 q 1147 573 1225 476 q 921 669 1069 669 q 653 524 742 664 q 533 628 608 589 q 375 669 457 667 q 240 643 304 669 q 128 569 176 617 q 54 459 81 522 q 28 324 28 396 q 54 188 28 251 q 128 78 81 125 q 240 4 176 31 q 375 -22 304 -22 q 533 15 458 -22 q 653 121 607 53 q 765 16 692 54 q 924 -22 839 -22 q 1099 25 1019 -22 q 1225 156 1179 72 l 1119 215 q 1037 120 1081 151 q 925 89 993 89 q 785 153 839 89 q 729 304 731 217 l 1225 304 z "},"Ÿ":{"ha":796,"x_min":-8,"x_max":806,"o":"m 269 1326 q 210 1302 235 1326 q 185 1243 185 1278 q 210 1183 185 1208 q 269 1158 235 1158 q 328 1183 304 1158 q 353 1243 353 1208 q 328 1302 353 1278 q 269 1326 304 1326 m 563 1326 q 503 1302 528 1326 q 478 1243 478 1278 q 503 1183 478 1208 q 563 1158 528 1158 q 622 1183 597 1158 q 646 1243 646 1208 q 622 1302 646 1278 q 563 1326 597 1326 m 333 456 l 333 0 l 464 0 l 464 456 l 806 1047 l 656 1047 l 399 600 l 142 1047 l -8 1047 l 333 456 z "},"¡":{"ha":446,"x_min":143,"x_max":304,"o":"m 224 706 q 167 681 190 706 q 143 625 143 657 q 167 568 143 592 q 224 544 190 544 q 281 568 257 544 q 304 625 304 592 q 281 681 304 657 q 224 706 257 706 m 161 449 l 161 -358 l 286 -358 l 286 449 l 161 449 z "},"¢":{"ha":803,"x_min":139,"x_max":664,"o":"m 494 978 l 428 978 l 428 869 q 312 829 365 860 q 219 751 258 799 q 160 646 181 704 q 139 524 139 588 q 160 404 139 461 q 221 303 182 347 q 313 229 260 258 q 428 190 365 200 l 428 67 l 494 67 l 494 185 l 518 186 q 664 225 594 193 l 664 388 q 588 329 628 350 q 494 301 547 308 l 494 757 q 588 732 543 756 q 661 669 632 708 l 664 669 l 664 829 q 585 860 628 850 q 494 872 543 869 l 494 978 m 428 306 q 307 386 353 321 q 261 529 261 451 q 274 600 261 563 q 308 669 286 638 q 361 723 331 701 q 428 749 392 744 l 428 306 z "},"£":{"ha":803,"x_min":15,"x_max":807,"o":"m 125 -22 q 172 44 143 21 q 247 68 201 68 q 317 57 279 68 q 408 24 354 46 q 507 -10 464 1 q 590 -22 550 -22 q 720 23 665 -22 q 807 142 775 68 l 703 206 q 651 131 676 158 q 588 103 625 103 q 544 110 567 103 q 489 131 521 118 q 457 143 468 139 l 354 179 q 374 300 374 246 q 354 418 374 356 l 526 418 l 526 499 l 321 499 q 293 546 314 511 q 241 644 260 601 q 222 738 222 688 q 241 813 222 775 q 291 881 260 850 q 363 929 322 911 q 446 947 404 947 q 591 885 533 947 q 649 736 649 824 l 649 697 l 774 744 q 676 980 767 890 q 440 1069 586 1069 q 315 1045 376 1069 q 203 976 253 1021 q 126 874 154 932 q 97 749 97 815 q 120 629 97 693 q 178 499 143 565 l 39 499 l 39 418 l 218 418 q 249 304 249 365 q 229 190 249 256 q 106 148 154 188 q 15 33 58 108 l 125 -22 z "},"¤":{"ha":803,"x_min":47,"x_max":756,"o":"m 671 758 l 607 697 q 515 747 565 729 q 401 764 465 764 q 288 747 338 764 q 196 697 238 729 l 132 758 l 49 675 l 106 614 q 62 521 76 568 q 47 417 47 474 q 62 313 47 360 q 106 219 76 265 l 49 158 l 132 75 l 196 136 q 288 87 238 104 q 401 69 338 69 q 515 87 465 69 q 607 136 565 104 l 671 75 l 754 158 l 697 219 q 741 313 726 265 q 756 417 756 360 q 741 521 756 474 q 697 614 726 568 l 754 675 l 671 758 m 401 181 q 308 199 351 181 q 231 251 264 218 q 178 326 197 283 q 158 417 160 369 q 228 587 158 521 q 401 653 297 653 q 575 586 506 653 q 644 417 644 519 q 626 326 644 369 q 574 251 607 283 q 496 199 540 218 q 401 181 451 181 z "},"¥":{"ha":803,"x_min":-6,"x_max":808,"o":"m 467 361 l 794 361 l 794 442 l 467 442 l 467 456 l 543 586 l 794 586 l 794 667 l 589 667 l 808 1047 l 658 1047 l 401 600 l 144 1047 l -6 1047 l 214 667 l 8 667 l 8 586 l 261 586 l 336 456 l 336 442 l 8 442 l 8 361 l 336 361 l 336 0 l 467 0 l 467 361 z "},"¦":{"ha":792,"x_min":336,"x_max":456,"o":"m 456 224 l 336 224 l 336 -124 l 456 -124 l 456 224 m 456 918 l 336 918 l 336 571 l 456 571 l 456 918 z "},"§":{"ha":803,"x_min":56,"x_max":747,"o":"m 297 465 l 296 467 q 209 521 239 494 q 179 594 179 547 q 202 678 179 638 q 263 742 225 718 l 518 613 q 597 561 569 588 q 624 490 624 535 q 601 408 624 449 q 540 344 578 368 l 297 465 m 431 267 l 433 265 q 536 200 500 232 q 572 115 572 168 q 520 3 572 49 q 400 -42 468 -42 q 263 17 315 -42 q 211 164 211 75 l 88 164 l 88 143 q 176 -75 88 6 q 401 -156 264 -156 q 513 -137 460 -156 q 608 -83 567 -118 q 674 3 650 -47 q 697 113 697 53 q 624 282 697 213 q 714 386 681 324 q 747 517 747 449 q 731 587 747 556 q 686 643 714 618 q 630 685 658 668 q 556 724 601 701 l 371 817 q 285 875 317 843 q 253 957 253 907 q 294 1056 253 1015 q 393 1096 335 1096 q 499 1063 453 1096 q 549 972 546 1029 l 669 972 q 583 1143 663 1081 q 393 1206 504 1206 q 295 1188 343 1206 q 209 1136 247 1169 q 149 1057 171 1103 q 128 960 128 1011 q 189 806 128 875 q 90 704 125 757 q 56 581 56 651 q 69 501 56 535 q 106 444 82 468 q 158 403 129 421 q 235 363 188 386 l 431 267 z "},"¨":{"ha":653,"x_min":96,"x_max":557,"o":"m 181 964 q 121 940 146 964 q 96 881 96 915 q 121 821 96 846 q 181 796 146 796 q 240 821 215 796 q 264 881 264 846 q 240 940 264 915 q 181 964 215 964 m 474 964 q 414 940 439 964 q 389 881 389 915 q 414 821 389 846 q 474 796 439 796 q 533 821 508 796 q 557 881 557 846 q 533 940 557 915 q 474 964 508 964 z "},"©":{"ha":1111,"x_min":8,"x_max":1103,"o":"m 556 -22 q 768 19 668 -22 q 944 136 868 61 q 1061 311 1019 211 q 1103 524 1103 411 q 1061 735 1103 636 q 944 910 1019 835 q 768 1028 868 986 q 556 1069 668 1069 q 343 1028 443 1069 q 167 911 243 986 q 50 736 92 836 q 8 524 8 636 q 50 312 8 411 q 167 137 92 213 q 343 19 243 61 q 556 -22 443 -22 m 556 981 q 731 946 647 981 q 879 849 815 911 q 978 702 943 786 q 1014 524 1014 618 q 978 346 1014 429 q 879 199 943 263 q 732 101 815 136 q 556 67 649 67 q 380 101 464 67 q 233 199 296 136 q 133 345 169 261 q 97 524 97 429 q 133 702 97 618 q 232 849 168 786 q 380 946 296 911 q 556 981 464 981 m 833 636 q 745 788 815 732 q 576 843 675 843 q 356 755 438 843 q 274 528 274 667 q 295 406 274 463 q 357 306 317 349 q 453 238 397 263 q 578 214 510 214 q 748 272 675 214 q 833 426 821 331 l 749 426 q 578 303 719 303 q 419 367 476 303 q 363 531 363 431 q 375 613 363 574 q 414 685 388 653 q 481 735 440 717 q 575 754 521 754 q 690 724 644 754 q 749 636 736 693 l 833 636 z "},"ª":{"ha":464,"x_min":17,"x_max":447,"o":"m 232 721 q 135 763 171 721 q 99 863 99 804 q 135 961 99 919 q 232 1003 172 1003 q 333 963 296 1003 q 369 863 369 922 q 333 762 369 803 q 232 721 296 721 m 447 1057 l 365 1057 l 365 993 l 364 993 q 299 1049 336 1029 q 217 1069 263 1069 q 72 1009 128 1069 q 17 865 17 949 q 72 715 17 776 q 219 654 126 654 q 301 674 264 654 q 363 728 338 694 l 365 728 l 365 668 l 447 668 l 447 1057 z "},"«":{"ha":726,"x_min":42,"x_max":639,"o":"m 432 444 l 639 721 l 561 778 l 308 444 l 561 122 l 639 179 l 432 444 m 165 444 l 372 721 l 294 778 l 42 444 l 294 122 l 372 179 l 165 444 z "},"¬":{"ha":803,"x_min":46,"x_max":757,"o":"m 638 160 l 757 160 l 757 535 l 46 535 l 46 415 l 638 415 l 638 160 z "},"­":{"ha":803,"x_min":46,"x_max":757,"o":"m 46 296 l 757 296 l 757 415 l 46 415 l 46 296 z "},"®":{"ha":1111,"x_min":8,"x_max":1103,"o":"m 556 -22 q 768 19 668 -22 q 944 136 868 61 q 1061 311 1019 211 q 1103 524 1103 411 q 1061 735 1103 636 q 944 910 1019 835 q 768 1028 868 986 q 556 1069 668 1069 q 343 1028 443 1069 q 167 911 243 986 q 50 736 92 836 q 8 524 8 636 q 50 312 8 411 q 167 137 92 213 q 343 19 243 61 q 556 -22 443 -22 m 556 981 q 731 946 647 981 q 879 849 815 911 q 978 702 943 786 q 1014 524 1014 618 q 978 346 1014 429 q 879 199 943 263 q 732 101 815 136 q 556 67 649 67 q 380 101 464 67 q 233 199 296 136 q 133 345 169 261 q 97 524 97 429 q 133 702 97 618 q 232 849 168 786 q 380 946 296 911 q 556 981 464 981 m 650 496 q 767 540 719 499 q 814 664 814 581 q 797 743 814 711 q 751 793 781 775 q 685 819 722 811 q 603 826 647 826 l 344 826 l 344 213 l 433 213 l 433 496 l 547 496 l 704 213 l 806 213 l 650 496 m 586 738 q 690 722 654 738 q 725 654 725 707 q 690 597 725 611 q 594 583 656 583 q 560 585 576 583 l 528 585 l 433 585 l 433 738 l 586 738 z "},"¯":{"ha":694,"x_min":97,"x_max":599,"o":"m 97 964 l 97 869 l 599 869 l 599 964 l 97 964 z "},"°":{"ha":556,"x_min":69,"x_max":486,"o":"m 486 861 q 470 941 486 903 q 425 1008 454 979 q 358 1053 396 1038 q 278 1069 319 1069 q 198 1053 236 1069 q 131 1008 160 1038 q 85 942 101 979 q 69 861 69 904 q 85 781 69 819 q 131 714 101 743 q 198 669 160 685 q 278 653 236 653 q 358 669 319 653 q 425 713 396 685 q 470 780 454 742 q 486 861 486 818 m 276 1000 q 376 960 336 1000 q 417 861 417 919 q 376 762 417 801 q 278 722 336 722 q 178 762 218 722 q 139 861 139 801 q 178 960 139 921 q 276 1000 218 1000 z "},"±":{"ha":803,"x_min":46,"x_max":757,"o":"m 46 0 l 757 0 l 757 119 l 46 119 l 46 0 m 342 781 l 342 540 l 46 540 l 46 421 l 342 421 l 342 181 l 461 181 l 461 421 l 757 421 l 757 540 l 461 540 l 461 781 l 342 781 z "},"²":{"ha":481,"x_min":21,"x_max":461,"o":"m 200 500 l 415 743 q 449 803 438 768 q 461 872 461 838 q 397 1007 461 953 q 246 1061 333 1061 q 97 1010 154 1061 q 31 875 40 960 l 124 875 q 160 951 126 922 q 246 981 194 981 q 332 949 292 981 q 372 869 372 917 q 358 813 372 840 q 319 757 343 785 l 21 419 l 461 419 l 461 500 l 200 500 z "},"³":{"ha":481,"x_min":26,"x_max":456,"o":"m 226 719 q 328 688 289 719 q 367 606 367 657 q 330 526 367 557 q 240 494 293 494 q 154 516 186 494 q 115 583 122 538 l 26 583 q 91 460 31 507 q 233 414 151 414 q 392 465 328 414 q 456 603 456 517 q 429 697 456 656 q 354 758 403 738 q 446 900 446 807 q 388 1023 446 976 q 244 1069 329 1069 q 108 1029 160 1069 q 44 911 57 989 l 138 911 q 167 969 138 950 q 242 989 197 989 q 323 964 289 989 q 357 893 357 939 q 322 824 357 847 q 226 800 286 800 l 226 719 z "},"´":{"ha":500,"x_min":106,"x_max":394,"o":"m 279 1019 l 106 789 l 167 751 l 394 958 l 279 1019 z "},"µ":{"ha":711,"x_min":81,"x_max":631,"o":"m 81 650 l 81 -372 l 206 -372 l 206 39 q 276 -4 236 14 q 356 -22 317 -22 q 563 58 494 -22 q 631 276 631 138 l 631 650 l 506 650 l 506 290 q 499 213 506 247 q 476 152 493 179 q 430 110 460 125 q 356 94 400 94 q 281 110 311 94 q 235 152 251 125 q 212 213 218 179 q 206 290 206 247 l 206 650 l 81 650 z "},"¶":{"ha":803,"x_min":56,"x_max":747,"o":"m 747 1047 l 356 1047 q 238 1019 293 1047 q 141 942 182 990 q 78 833 100 893 q 56 714 56 774 q 57 701 56 707 q 57 690 57 696 q 145 472 67 551 q 343 393 224 393 l 343 -212 l 460 -212 l 460 931 l 546 931 l 546 -212 l 663 -212 l 663 931 l 747 931 l 747 1047 z "},"·":{"ha":401,"x_min":121,"x_max":282,"o":"m 201 436 q 144 412 168 436 q 121 356 121 388 q 144 299 121 322 q 201 275 168 275 q 258 299 235 275 q 282 356 282 322 q 258 412 282 388 q 201 436 235 436 z "},"¸":{"ha":458,"x_min":119,"x_max":339,"o":"m 339 -64 l 240 -24 l 119 -214 l 193 -251 l 339 -64 z "},"¹":{"ha":481,"x_min":90,"x_max":299,"o":"m 210 967 l 210 419 l 299 419 l 299 1047 l 138 1047 l 90 967 l 210 967 z "},"º":{"ha":450,"x_min":0,"x_max":451,"o":"m 225 1069 q 65 1010 131 1069 q 0 861 0 950 q 65 714 0 774 q 225 654 131 654 q 385 714 319 654 q 451 861 451 774 q 386 1010 451 950 q 225 1069 321 1069 m 225 997 q 327 958 285 997 q 369 861 369 918 q 327 767 369 807 q 225 726 285 726 q 124 767 165 726 q 82 861 82 807 q 124 958 82 918 q 225 997 165 997 z "},"»":{"ha":726,"x_min":88,"x_max":685,"o":"m 88 179 l 165 122 l 418 444 l 165 778 l 88 721 l 294 444 l 88 179 m 354 179 l 432 122 l 685 444 l 432 778 l 354 721 l 561 444 l 354 179 z "},"¼":{"ha":1204,"x_min":56,"x_max":1149,"o":"m 175 967 l 175 419 l 264 419 l 264 1047 l 103 1047 l 56 967 l 175 967 m 1081 172 l 1081 657 l 654 92 l 992 92 l 992 0 l 1081 0 l 1081 92 l 1149 92 l 1149 172 l 1081 172 m 992 172 l 817 172 l 988 400 l 992 400 l 992 172 m 876 1069 l 265 17 l 336 -22 l 947 1033 l 876 1069 z "},"½":{"ha":1204,"x_min":56,"x_max":1149,"o":"m 175 419 l 264 419 l 264 1047 l 103 1047 l 56 967 l 175 967 l 175 419 m 888 81 l 1103 324 q 1137 383 1125 349 q 1149 453 1149 418 q 1085 588 1149 533 q 933 642 1021 642 q 785 591 842 642 q 718 456 728 540 l 811 456 q 848 532 814 503 q 933 561 882 561 q 1019 529 979 561 q 1060 450 1060 497 q 1045 393 1060 421 q 1007 338 1031 365 l 708 0 l 1149 0 l 1149 81 l 888 81 m 804 1069 l 193 17 l 264 -22 l 875 1033 l 804 1069 z "},"¾":{"ha":1204,"x_min":56,"x_max":1149,"o":"m 1081 172 l 1081 657 l 654 92 l 992 92 l 992 0 l 1081 0 l 1081 92 l 1149 92 l 1149 172 l 1081 172 m 992 172 l 817 172 l 988 400 l 992 400 l 992 172 m 256 719 q 357 688 318 719 q 396 606 396 657 q 359 526 396 557 q 269 494 322 494 q 183 516 215 494 q 144 583 151 538 l 56 583 q 120 460 60 507 q 263 414 181 414 q 421 465 357 414 q 485 603 485 517 q 458 697 485 656 q 383 758 432 738 q 475 900 475 807 q 417 1023 475 976 q 274 1069 358 1069 q 138 1029 189 1069 q 74 911 86 989 l 167 911 q 197 969 167 950 q 271 989 226 989 q 352 964 318 989 q 386 893 386 939 q 351 824 386 847 q 256 800 315 800 l 256 719 m 954 1069 l 343 17 l 414 -22 l 1025 1033 l 954 1069 z "},"¿":{"ha":629,"x_min":58,"x_max":557,"o":"m 211 218 q 239 294 211 264 q 310 325 267 325 q 379 296 351 325 q 407 225 407 267 q 379 160 407 183 q 306 124 351 138 l 296 121 q 200 87 238 103 q 133 46 163 71 q 78 -31 97 15 q 58 -126 58 -78 q 77 -223 58 -178 q 131 -302 96 -268 q 211 -354 165 -336 q 308 -372 257 -372 q 401 -356 356 -372 q 481 -308 446 -339 q 536 -232 515 -276 q 557 -136 557 -187 l 554 -90 l 424 -90 l 425 -94 q 432 -135 432 -119 q 397 -219 432 -183 q 313 -254 361 -254 q 221 -221 257 -254 q 185 -131 185 -187 q 222 -48 185 -75 q 335 7 258 -21 q 358 15 343 10 q 426 44 397 29 q 481 81 456 58 q 519 138 506 104 q 533 219 533 172 q 516 306 533 265 q 468 378 499 347 q 397 425 438 408 q 310 442 356 442 q 227 424 268 442 q 154 376 186 407 q 103 305 122 346 q 85 218 85 264 l 211 218 m 310 706 q 253 681 276 706 q 229 625 229 657 q 253 568 229 592 q 310 544 276 544 q 367 568 343 544 q 390 625 390 592 q 367 681 390 657 q 310 706 343 706 z "},"À":{"ha":976,"x_min":-11,"x_max":989,"o":"m 289 1321 l 517 1114 l 578 1151 l 404 1382 l 289 1321 m 729 263 l 849 0 l 989 0 l 489 1092 l -11 0 l 129 0 l 249 263 l 729 263 m 675 382 l 303 382 l 489 806 l 675 382 z "},"Á":{"ha":976,"x_min":-11,"x_max":989,"o":"m 574 1382 l 400 1151 l 461 1114 l 689 1321 l 574 1382 m 729 263 l 849 0 l 989 0 l 489 1092 l -11 0 l 129 0 l 249 263 l 729 263 m 675 382 l 303 382 l 489 806 l 675 382 z "},"Â":{"ha":976,"x_min":-11,"x_max":989,"o":"m 267 1181 l 347 1117 l 488 1250 l 629 1117 l 711 1181 l 488 1382 l 267 1181 m 729 263 l 849 0 l 989 0 l 489 1092 l -11 0 l 129 0 l 249 263 l 729 263 m 675 382 l 303 382 l 489 806 l 675 382 z "},"Ã":{"ha":976,"x_min":-11,"x_max":989,"o":"m 289 1158 q 323 1203 301 1183 q 368 1222 344 1222 q 468 1192 401 1222 l 476 1188 q 540 1160 514 1169 q 592 1151 565 1151 q 688 1183 646 1151 q 756 1265 731 1214 l 690 1319 q 651 1272 672 1290 q 601 1253 629 1253 q 503 1290 571 1253 l 501 1290 q 378 1326 435 1326 q 296 1299 328 1326 q 228 1221 264 1272 l 224 1214 l 289 1158 m 729 263 l 849 0 l 989 0 l 489 1092 l -11 0 l 129 0 l 249 263 l 729 263 m 675 382 l 303 382 l 489 806 l 675 382 z "},"Ä":{"ha":976,"x_min":-11,"x_max":989,"o":"m 343 1326 q 283 1302 308 1326 q 258 1243 258 1278 q 283 1183 258 1208 q 343 1158 308 1158 q 402 1183 378 1158 q 426 1243 426 1208 q 402 1302 426 1278 q 343 1326 378 1326 m 636 1326 q 576 1302 601 1326 q 551 1243 551 1278 q 576 1183 551 1208 q 636 1158 601 1158 q 695 1183 671 1158 q 719 1243 719 1208 q 695 1302 719 1278 q 636 1326 671 1326 m 729 263 l 849 0 l 989 0 l 489 1092 l -11 0 l 129 0 l 249 263 l 729 263 m 675 382 l 303 382 l 489 806 l 675 382 z "},"Å":{"ha":976,"x_min":-11,"x_max":989,"o":"m 489 1368 q 401 1331 438 1368 q 364 1242 364 1294 q 400 1153 364 1189 q 489 1117 436 1117 q 578 1153 542 1117 q 615 1242 615 1189 q 578 1331 615 1294 q 489 1368 542 1368 m 489 1179 q 445 1197 464 1179 q 426 1242 426 1215 q 445 1287 426 1268 q 489 1306 464 1306 q 534 1287 515 1306 q 553 1242 553 1268 q 534 1197 553 1215 q 489 1179 515 1179 m 729 263 l 849 0 l 989 0 l 489 1092 l -11 0 l 129 0 l 249 263 l 729 263 m 675 382 l 303 382 l 489 806 l 675 382 z "},"Æ":{"ha":1385,"x_min":0,"x_max":1418,"o":"m 739 263 l 854 0 l 1418 0 l 1365 119 l 933 119 l 765 515 l 1185 515 l 1129 635 l 711 635 l 585 928 l 1014 928 l 961 1047 l 503 1047 l 0 0 l 143 0 l 263 263 l 739 263 m 690 382 l 318 382 l 510 788 l 690 382 z "},"Ç":{"ha":918,"x_min":42,"x_max":863,"o":"m 863 999 q 738 1052 806 1035 q 599 1069 669 1069 q 383 1028 485 1069 q 205 910 282 986 q 85 733 128 833 q 42 518 42 632 q 84 308 42 407 q 202 135 126 210 q 378 19 278 60 q 588 -22 478 -22 q 730 -3 657 -22 q 863 51 803 17 l 863 206 q 732 125 804 153 q 583 97 660 97 q 422 131 497 97 q 291 224 347 164 q 203 360 235 283 q 172 522 172 438 q 203 686 172 608 q 292 824 235 764 q 424 917 349 883 q 586 950 500 950 q 734 924 661 950 q 863 847 807 897 l 863 999 m 569 -64 l 471 -24 l 350 -214 l 424 -251 l 569 -64 z "},"È":{"ha":724,"x_min":100,"x_max":663,"o":"m 190 1321 l 418 1114 l 479 1151 l 306 1382 l 190 1321 m 100 0 l 663 0 l 663 119 l 231 119 l 231 515 l 650 515 l 650 635 l 231 635 l 231 928 l 663 928 l 663 1047 l 100 1047 l 100 0 z "},"É":{"ha":724,"x_min":100,"x_max":663,"o":"m 447 1382 l 274 1151 l 335 1114 l 563 1321 l 447 1382 m 100 0 l 663 0 l 663 119 l 231 119 l 231 515 l 650 515 l 650 635 l 231 635 l 231 928 l 663 928 l 663 1047 l 100 1047 l 100 0 z "},"Ê":{"ha":724,"x_min":100,"x_max":663,"o":"m 157 1181 l 238 1117 l 378 1250 l 519 1117 l 601 1181 l 378 1382 l 157 1181 m 100 0 l 663 0 l 663 119 l 231 119 l 231 515 l 650 515 l 650 635 l 231 635 l 231 928 l 663 928 l 663 1047 l 100 1047 l 100 0 z "},"Ë":{"ha":724,"x_min":100,"x_max":663,"o":"m 233 1326 q 174 1302 199 1326 q 149 1243 149 1278 q 174 1183 149 1208 q 233 1158 199 1158 q 292 1183 268 1158 q 317 1243 317 1208 q 292 1302 317 1278 q 233 1326 268 1326 m 526 1326 q 467 1302 492 1326 q 442 1243 442 1278 q 467 1183 442 1208 q 526 1158 492 1158 q 585 1183 561 1158 q 610 1243 610 1208 q 585 1302 610 1278 q 526 1326 561 1326 m 100 0 l 663 0 l 663 119 l 231 119 l 231 515 l 650 515 l 650 635 l 231 635 l 231 928 l 663 928 l 663 1047 l 100 1047 l 100 0 z "},"Ì":{"ha":322,"x_min":-25,"x_max":264,"o":"m -25 1321 l 203 1114 l 264 1151 l 90 1382 l -25 1321 m 226 1047 l 96 1047 l 96 0 l 226 0 l 226 1047 z "},"Í":{"ha":322,"x_min":58,"x_max":347,"o":"m 232 1382 l 58 1151 l 119 1114 l 347 1321 l 232 1382 m 226 1047 l 96 1047 l 96 0 l 226 0 l 226 1047 z "},"Î":{"ha":322,"x_min":-61,"x_max":383,"o":"m -61 1181 l 19 1117 l 160 1250 l 301 1117 l 383 1181 l 160 1382 l -61 1181 m 226 1047 l 96 1047 l 96 0 l 226 0 l 226 1047 z "},"Ï":{"ha":322,"x_min":-69,"x_max":392,"o":"m 15 1326 q -44 1302 -19 1326 q -69 1243 -69 1278 q -44 1183 -69 1208 q 15 1158 -19 1158 q 74 1183 50 1158 q 99 1243 99 1208 q 74 1302 99 1278 q 15 1326 50 1326 m 308 1326 q 249 1302 274 1326 q 224 1243 224 1278 q 249 1183 224 1208 q 308 1158 274 1158 q 367 1183 343 1158 q 392 1243 392 1208 q 367 1302 392 1278 q 308 1326 343 1326 m 226 1047 l 96 1047 l 96 0 l 226 0 l 226 1047 z "},"Ð":{"ha":924,"x_min":0,"x_max":893,"o":"m 89 614 l 0 614 l 0 503 l 89 503 l 89 0 l 301 0 q 534 33 426 0 q 723 132 642 65 q 849 299 804 199 q 893 529 893 399 q 848 755 893 657 q 722 917 803 853 q 534 1015 640 982 q 306 1047 428 1047 l 89 1047 l 89 614 m 219 928 l 265 928 q 459 907 369 928 q 617 839 549 886 q 724 713 685 792 q 763 524 763 635 q 724 335 763 414 q 617 210 685 257 q 460 141 549 163 q 265 119 371 119 l 219 119 l 219 503 l 406 503 l 406 614 l 219 614 l 219 928 z "},"Ñ":{"ha":1090,"x_min":88,"x_max":1004,"o":"m 346 1158 q 380 1203 358 1183 q 425 1222 401 1222 q 525 1192 458 1222 l 533 1188 q 597 1160 571 1169 q 649 1151 622 1151 q 745 1183 703 1151 q 813 1265 788 1214 l 747 1319 q 708 1272 729 1290 q 658 1253 686 1253 q 560 1290 628 1253 l 558 1290 q 435 1326 492 1326 q 353 1299 385 1326 q 285 1221 321 1272 l 281 1214 l 346 1158 m 88 0 l 218 0 l 218 781 l 1004 -43 l 1004 1047 l 874 1047 l 874 274 l 88 1097 l 88 0 z "},"Ò":{"ha":1150,"x_min":26,"x_max":1124,"o":"m 389 1321 l 617 1114 l 678 1151 l 504 1382 l 389 1321 m 575 1069 q 364 1027 464 1069 q 188 909 264 985 q 69 733 113 833 q 26 524 26 633 q 69 309 26 410 q 187 134 111 208 q 363 19 263 60 q 575 -22 463 -22 q 788 19 688 -22 q 963 134 888 60 q 1081 309 1039 208 q 1124 524 1124 410 q 1081 733 1124 633 q 962 909 1038 833 q 786 1027 886 985 q 575 1069 686 1069 m 575 100 q 415 132 490 100 q 281 222 339 164 q 190 358 222 281 q 157 524 157 436 q 188 687 157 610 q 274 823 218 764 q 408 915 331 882 q 575 947 485 947 q 742 915 665 947 q 876 823 819 882 q 963 687 932 764 q 993 524 993 610 q 960 358 993 436 q 869 222 928 281 q 735 132 811 164 q 575 100 660 100 z "},"Ó":{"ha":1150,"x_min":26,"x_max":1124,"o":"m 646 1382 l 472 1151 l 533 1114 l 761 1321 l 646 1382 m 575 1069 q 364 1027 464 1069 q 188 909 264 985 q 69 733 113 833 q 26 524 26 633 q 69 309 26 410 q 187 134 111 208 q 363 19 263 60 q 575 -22 463 -22 q 788 19 688 -22 q 963 134 888 60 q 1081 309 1039 208 q 1124 524 1124 410 q 1081 733 1124 633 q 962 909 1038 833 q 786 1027 886 985 q 575 1069 686 1069 m 575 100 q 415 132 490 100 q 281 222 339 164 q 190 358 222 281 q 157 524 157 436 q 188 687 157 610 q 274 823 218 764 q 408 915 331 882 q 575 947 485 947 q 742 915 665 947 q 876 823 819 882 q 963 687 932 764 q 993 524 993 610 q 960 358 993 436 q 869 222 928 281 q 735 132 811 164 q 575 100 660 100 z "},"Ô":{"ha":1150,"x_min":26,"x_max":1124,"o":"m 353 1181 l 433 1117 l 574 1250 l 715 1117 l 797 1181 l 574 1382 l 353 1181 m 575 1069 q 364 1027 464 1069 q 188 909 264 985 q 69 733 113 833 q 26 524 26 633 q 69 309 26 410 q 187 134 111 208 q 363 19 263 60 q 575 -22 463 -22 q 788 19 688 -22 q 963 134 888 60 q 1081 309 1039 208 q 1124 524 1124 410 q 1081 733 1124 633 q 962 909 1038 833 q 786 1027 886 985 q 575 1069 686 1069 m 575 100 q 415 132 490 100 q 281 222 339 164 q 190 358 222 281 q 157 524 157 436 q 188 687 157 610 q 274 823 218 764 q 408 915 331 882 q 575 947 485 947 q 742 915 665 947 q 876 823 819 882 q 963 687 932 764 q 993 524 993 610 q 960 358 993 436 q 869 222 928 281 q 735 132 811 164 q 575 100 660 100 z "},"Õ":{"ha":1150,"x_min":26,"x_max":1124,"o":"m 375 1158 q 409 1203 388 1183 q 454 1222 431 1222 q 554 1192 488 1222 l 563 1188 q 626 1160 600 1169 q 678 1151 651 1151 q 774 1183 732 1151 q 842 1265 817 1214 l 776 1319 q 737 1272 758 1290 q 688 1253 715 1253 q 589 1290 657 1253 l 588 1290 q 464 1326 521 1326 q 382 1299 414 1326 q 314 1221 350 1272 l 310 1214 l 375 1158 m 575 1069 q 364 1027 464 1069 q 188 909 264 985 q 69 733 113 833 q 26 524 26 633 q 69 309 26 410 q 187 134 111 208 q 363 19 263 60 q 575 -22 463 -22 q 788 19 688 -22 q 963 134 888 60 q 1081 309 1039 208 q 1124 524 1124 410 q 1081 733 1124 633 q 962 909 1038 833 q 786 1027 886 985 q 575 1069 686 1069 m 575 100 q 415 132 490 100 q 281 222 339 164 q 190 358 222 281 q 157 524 157 436 q 188 687 157 610 q 274 823 218 764 q 408 915 331 882 q 575 947 485 947 q 742 915 665 947 q 876 823 819 882 q 963 687 932 764 q 993 524 993 610 q 960 358 993 436 q 869 222 928 281 q 735 132 811 164 q 575 100 660 100 z "},"Ö":{"ha":1150,"x_min":26,"x_max":1124,"o":"m 429 1326 q 369 1302 394 1326 q 344 1243 344 1278 q 369 1183 344 1208 q 429 1158 394 1158 q 488 1183 464 1158 q 513 1243 513 1208 q 488 1302 513 1278 q 429 1326 464 1326 m 722 1326 q 663 1302 688 1326 q 638 1243 638 1278 q 663 1183 638 1208 q 722 1158 688 1158 q 781 1183 757 1158 q 806 1243 806 1208 q 781 1302 806 1278 q 722 1326 757 1326 m 575 1069 q 364 1027 464 1069 q 188 909 264 985 q 69 733 113 833 q 26 524 26 633 q 69 309 26 410 q 187 134 111 208 q 363 19 263 60 q 575 -22 463 -22 q 788 19 688 -22 q 963 134 888 60 q 1081 309 1039 208 q 1124 524 1124 410 q 1081 733 1124 633 q 962 909 1038 833 q 786 1027 886 985 q 575 1069 686 1069 m 575 100 q 415 132 490 100 q 281 222 339 164 q 190 358 222 281 q 157 524 157 436 q 188 687 157 610 q 274 823 218 764 q 408 915 331 882 q 575 947 485 947 q 742 915 665 947 q 876 823 819 882 q 963 687 932 764 q 993 524 993 610 q 960 358 993 436 q 869 222 928 281 q 735 132 811 164 q 575 100 660 100 z "},"×":{"ha":803,"x_min":46,"x_max":757,"o":"m 46 626 l 317 356 l 46 85 l 129 0 l 401 271 l 674 0 l 757 85 l 486 356 l 757 626 l 674 711 l 401 440 l 129 711 l 46 626 z "},"Ø":{"ha":1150,"x_min":10,"x_max":1140,"o":"m 915 774 q 973 657 953 721 q 993 524 993 593 q 960 358 993 436 q 869 222 928 281 q 735 132 811 164 q 575 100 660 100 q 439 123 504 100 q 321 188 374 146 l 915 774 m 247 263 q 181 383 204 317 q 157 524 157 450 q 188 687 157 610 q 274 823 218 764 q 408 915 331 882 q 575 947 485 947 q 723 922 654 947 q 844 850 792 897 l 247 263 m 10 29 l 85 -44 l 229 97 q 390 9 301 40 q 575 -22 479 -22 q 788 19 688 -22 q 963 134 888 60 q 1081 309 1039 208 q 1124 524 1124 410 q 1092 703 1124 617 q 1004 861 1061 789 l 1140 994 l 1065 1068 l 932 936 q 767 1034 860 999 q 575 1069 675 1069 q 364 1027 464 1069 q 188 909 264 985 q 69 733 113 833 q 26 524 26 633 q 60 333 26 422 q 154 171 93 243 l 10 29 z "},"Ù":{"ha":929,"x_min":82,"x_max":849,"o":"m 279 1321 l 507 1114 l 568 1151 l 394 1382 l 279 1321 m 82 1047 l 82 385 q 108 224 82 299 q 185 94 135 150 q 306 8 235 39 q 465 -22 376 -22 q 626 8 554 -22 q 747 94 697 39 q 822 224 796 149 q 849 385 849 299 l 849 1047 l 718 1047 l 718 429 q 706 302 718 360 q 666 199 694 244 q 588 126 638 153 q 465 100 538 100 q 343 126 393 100 q 265 199 293 153 q 224 302 236 244 q 213 429 213 360 l 213 1047 l 82 1047 z "},"Ú":{"ha":929,"x_min":82,"x_max":849,"o":"m 536 1382 l 363 1151 l 424 1114 l 651 1321 l 536 1382 m 82 1047 l 82 385 q 108 224 82 299 q 185 94 135 150 q 306 8 235 39 q 465 -22 376 -22 q 626 8 554 -22 q 747 94 697 39 q 822 224 796 149 q 849 385 849 299 l 849 1047 l 718 1047 l 718 429 q 706 302 718 360 q 666 199 694 244 q 588 126 638 153 q 465 100 538 100 q 343 126 393 100 q 265 199 293 153 q 224 302 236 244 q 213 429 213 360 l 213 1047 l 82 1047 z "},"Û":{"ha":929,"x_min":82,"x_max":849,"o":"m 243 1181 l 324 1117 l 464 1250 l 606 1117 l 688 1181 l 464 1382 l 243 1181 m 82 1047 l 82 385 q 108 224 82 299 q 185 94 135 150 q 306 8 235 39 q 465 -22 376 -22 q 626 8 554 -22 q 747 94 697 39 q 822 224 796 149 q 849 385 849 299 l 849 1047 l 718 1047 l 718 429 q 706 302 718 360 q 666 199 694 244 q 588 126 638 153 q 465 100 538 100 q 343 126 393 100 q 265 199 293 153 q 224 302 236 244 q 213 429 213 360 l 213 1047 l 82 1047 z "},"Ü":{"ha":929,"x_min":82,"x_max":849,"o":"m 319 1326 q 260 1302 285 1326 q 235 1243 235 1278 q 260 1183 235 1208 q 319 1158 285 1158 q 378 1183 354 1158 q 403 1243 403 1208 q 378 1302 403 1278 q 319 1326 354 1326 m 613 1326 q 553 1302 578 1326 q 528 1243 528 1278 q 553 1183 528 1208 q 613 1158 578 1158 q 672 1183 647 1158 q 696 1243 696 1208 q 672 1302 696 1278 q 613 1326 647 1326 m 82 1047 l 82 385 q 108 224 82 299 q 185 94 135 150 q 306 8 235 39 q 465 -22 376 -22 q 626 8 554 -22 q 747 94 697 39 q 822 224 796 149 q 849 385 849 299 l 849 1047 l 718 1047 l 718 429 q 706 302 718 360 q 666 199 694 244 q 588 126 638 153 q 465 100 538 100 q 343 126 393 100 q 265 199 293 153 q 224 302 236 244 q 213 429 213 360 l 213 1047 l 82 1047 z "},"Ý":{"ha":796,"x_min":-8,"x_max":806,"o":"m 511 1382 l 338 1151 l 399 1114 l 626 1321 l 511 1382 m 333 456 l 333 0 l 464 0 l 464 456 l 806 1047 l 656 1047 l 399 600 l 142 1047 l -8 1047 l 333 456 z "},"Þ":{"ha":688,"x_min":100,"x_max":672,"o":"m 231 244 l 306 244 q 449 262 383 244 q 565 316 515 279 q 644 411 615 353 q 672 550 672 469 q 651 681 672 625 q 581 774 629 736 q 451 833 532 813 q 250 853 369 853 l 231 853 l 231 1047 l 100 1047 l 100 0 l 231 0 l 231 244 m 231 736 l 265 736 q 370 730 322 736 q 459 705 418 724 q 525 649 500 686 q 550 553 550 611 q 527 455 550 493 q 465 397 504 417 q 378 369 425 376 q 272 361 331 361 l 231 361 l 231 736 z "},"ß":{"ha":806,"x_min":39,"x_max":788,"o":"m 392 -22 q 547 7 474 -22 q 674 89 619 36 q 758 211 728 142 q 788 358 788 281 q 729 563 788 468 q 571 690 671 658 q 704 922 704 768 q 681 1042 704 986 q 617 1138 658 1097 q 521 1200 576 1178 q 403 1222 465 1222 q 259 1196 318 1222 q 164 1121 200 1169 q 111 1006 128 1072 q 94 858 94 940 l 94 653 l 39 653 l 39 536 l 94 536 l 94 0 l 219 0 l 219 776 q 224 903 219 850 q 244 1002 228 956 q 299 1077 261 1049 q 399 1106 336 1106 q 526 1056 474 1106 q 579 929 579 1006 q 526 793 579 849 q 392 738 472 738 l 392 615 q 587 542 511 608 q 663 358 663 475 q 641 257 663 306 q 581 172 619 208 q 494 115 543 136 q 392 94 444 94 l 392 -22 z "},"à":{"ha":772,"x_min":36,"x_max":696,"o":"m 221 958 l 449 751 l 510 789 l 336 1019 l 221 958 m 367 89 q 217 158 272 89 q 161 325 161 228 q 217 490 161 421 q 367 558 274 558 q 521 491 464 558 q 578 325 578 424 q 522 157 578 225 q 367 89 465 89 m 696 650 l 571 650 l 571 542 l 568 542 q 472 635 529 601 q 343 669 414 669 q 217 642 274 669 q 119 567 160 615 q 58 458 79 519 q 36 329 36 396 q 57 196 36 260 q 118 83 78 132 q 217 6 158 33 q 347 -22 275 -22 q 472 11 415 -22 q 568 101 529 44 l 571 101 l 571 0 l 696 0 l 696 650 z "},"á":{"ha":772,"x_min":36,"x_max":696,"o":"m 471 1019 l 297 789 l 358 751 l 586 958 l 471 1019 m 367 89 q 217 158 272 89 q 161 325 161 228 q 217 490 161 421 q 367 558 274 558 q 521 491 464 558 q 578 325 578 424 q 522 157 578 225 q 367 89 465 89 m 696 650 l 571 650 l 571 542 l 568 542 q 472 635 529 601 q 343 669 414 669 q 217 642 274 669 q 119 567 160 615 q 58 458 79 519 q 36 329 36 396 q 57 196 36 260 q 118 83 78 132 q 217 6 158 33 q 347 -22 275 -22 q 472 11 415 -22 q 568 101 529 44 l 571 101 l 571 0 l 696 0 l 696 650 z "},"â":{"ha":772,"x_min":36,"x_max":696,"o":"m 164 818 l 244 754 l 385 888 l 526 754 l 608 818 l 385 1019 l 164 818 m 367 89 q 217 158 272 89 q 161 325 161 228 q 217 490 161 421 q 367 558 274 558 q 521 491 464 558 q 578 325 578 424 q 522 157 578 225 q 367 89 465 89 m 696 650 l 571 650 l 571 542 l 568 542 q 472 635 529 601 q 343 669 414 669 q 217 642 274 669 q 119 567 160 615 q 58 458 79 519 q 36 329 36 396 q 57 196 36 260 q 118 83 78 132 q 217 6 158 33 q 347 -22 275 -22 q 472 11 415 -22 q 568 101 529 44 l 571 101 l 571 0 l 696 0 l 696 650 z "},"ã":{"ha":772,"x_min":36,"x_max":696,"o":"m 186 796 q 220 840 199 821 q 265 860 242 860 q 365 829 299 860 l 374 825 q 437 798 411 807 q 489 789 463 789 q 585 820 543 789 q 653 903 628 851 l 588 957 q 548 909 569 928 q 499 890 526 890 q 400 928 468 890 l 399 928 q 275 964 332 964 q 193 937 225 964 q 125 858 161 910 l 121 851 l 186 796 m 367 89 q 217 158 272 89 q 161 325 161 228 q 217 490 161 421 q 367 558 274 558 q 521 491 464 558 q 578 325 578 424 q 522 157 578 225 q 367 89 465 89 m 696 650 l 571 650 l 571 542 l 568 542 q 472 635 529 601 q 343 669 414 669 q 217 642 274 669 q 119 567 160 615 q 58 458 79 519 q 36 329 36 396 q 57 196 36 260 q 118 83 78 132 q 217 6 158 33 q 347 -22 275 -22 q 472 11 415 -22 q 568 101 529 44 l 571 101 l 571 0 l 696 0 l 696 650 z "},"ä":{"ha":772,"x_min":36,"x_max":696,"o":"m 240 964 q 181 940 206 964 q 156 881 156 915 q 181 821 156 846 q 240 796 206 796 q 299 821 275 796 q 324 881 324 846 q 299 940 324 915 q 240 964 275 964 m 533 964 q 474 940 499 964 q 449 881 449 915 q 474 821 449 846 q 533 796 499 796 q 592 821 568 796 q 617 881 617 846 q 592 940 617 915 q 533 964 568 964 m 367 89 q 217 158 272 89 q 161 325 161 228 q 217 490 161 421 q 367 558 274 558 q 521 491 464 558 q 578 325 578 424 q 522 157 578 225 q 367 89 465 89 m 696 650 l 571 650 l 571 542 l 568 542 q 472 635 529 601 q 343 669 414 669 q 217 642 274 669 q 119 567 160 615 q 58 458 79 519 q 36 329 36 396 q 57 196 36 260 q 118 83 78 132 q 217 6 158 33 q 347 -22 275 -22 q 472 11 415 -22 q 568 101 529 44 l 571 101 l 571 0 l 696 0 l 696 650 z "},"å":{"ha":772,"x_min":36,"x_max":696,"o":"m 386 1019 q 298 983 335 1019 q 261 893 261 946 q 297 804 261 840 q 386 768 333 768 q 476 804 439 768 q 513 893 513 840 q 476 983 513 946 q 386 1019 439 1019 m 386 831 q 342 849 361 831 q 324 893 324 867 q 342 938 324 919 q 386 957 361 957 q 431 938 413 957 q 450 893 450 919 q 431 849 450 867 q 386 831 413 831 m 367 89 q 217 158 272 89 q 161 325 161 228 q 217 490 161 421 q 367 558 274 558 q 521 491 464 558 q 578 325 578 424 q 522 157 578 225 q 367 89 465 89 m 696 650 l 571 650 l 571 542 l 568 542 q 472 635 529 601 q 343 669 414 669 q 217 642 274 669 q 119 567 160 615 q 58 458 79 519 q 36 329 36 396 q 57 196 36 260 q 118 83 78 132 q 217 6 158 33 q 347 -22 275 -22 q 472 11 415 -22 q 568 101 529 44 l 571 101 l 571 0 l 696 0 l 696 650 z "},"æ":{"ha":1121,"x_min":36,"x_max":1100,"o":"m 614 399 q 676 515 625 469 q 799 561 726 561 q 919 517 872 561 q 978 399 967 474 l 614 399 m 307 303 q 362 297 333 303 q 415 279 390 292 q 456 246 440 267 q 472 197 472 225 q 457 149 472 169 q 417 115 442 128 q 365 95 393 101 q 311 89 336 89 q 257 94 285 89 q 206 113 229 100 q 168 145 183 125 q 153 193 153 165 q 201 274 153 246 q 307 303 250 303 m 1100 304 l 1100 324 q 1022 573 1100 476 q 796 669 944 669 q 655 642 719 669 q 549 563 590 615 q 456 642 519 615 q 326 669 393 669 q 131 651 222 669 l 131 540 q 213 557 169 553 q 308 561 256 561 q 479 393 479 561 l 479 349 q 390 394 440 381 q 282 408 339 408 q 107 351 178 408 q 36 190 36 293 q 58 97 36 138 q 119 31 81 57 q 204 -9 157 4 q 300 -22 251 -22 q 442 9 375 -22 q 549 99 510 40 q 662 10 597 42 q 799 -22 726 -22 q 974 25 894 -22 q 1100 156 1054 72 l 994 215 q 912 120 956 151 q 800 89 868 89 q 660 153 714 89 q 604 304 606 217 l 1100 304 z "},"ç":{"ha":613,"x_min":36,"x_max":564,"o":"m 564 626 q 483 658 528 647 q 392 669 438 669 q 253 644 318 669 q 139 570 188 618 q 63 458 90 522 q 36 319 36 394 q 63 185 36 247 q 138 76 90 122 q 250 3 186 29 q 385 -22 314 -22 q 564 21 483 -22 l 564 181 q 386 94 488 94 q 224 160 288 94 q 161 325 161 225 q 178 410 161 369 q 224 483 194 451 q 294 534 254 515 q 378 553 333 553 q 564 465 488 553 l 564 626 m 417 -64 l 318 -24 l 197 -214 l 271 -251 l 417 -64 z "},"è":{"ha":678,"x_min":36,"x_max":657,"o":"m 174 958 l 401 751 l 463 789 l 289 1019 l 174 958 m 657 304 l 657 324 q 579 573 657 476 q 353 669 501 669 q 118 572 200 669 q 36 319 36 475 q 58 185 36 247 q 122 76 81 122 q 223 3 164 29 q 356 -22 282 -22 q 531 25 451 -22 q 657 156 611 72 l 551 215 q 469 120 513 151 q 357 89 425 89 q 217 153 271 89 q 161 304 163 217 l 657 304 m 168 399 q 230 515 179 469 q 353 561 281 561 q 474 517 426 561 q 532 399 521 474 l 168 399 z "},"é":{"ha":678,"x_min":36,"x_max":657,"o":"m 424 1019 l 250 789 l 311 751 l 539 958 l 424 1019 m 657 304 l 657 324 q 579 573 657 476 q 353 669 501 669 q 118 572 200 669 q 36 319 36 475 q 58 185 36 247 q 122 76 81 122 q 223 3 164 29 q 356 -22 282 -22 q 531 25 451 -22 q 657 156 611 72 l 551 215 q 469 120 513 151 q 357 89 425 89 q 217 153 271 89 q 161 304 163 217 l 657 304 m 168 399 q 230 515 179 469 q 353 561 281 561 q 474 517 426 561 q 532 399 521 474 l 168 399 z "},"ê":{"ha":678,"x_min":36,"x_max":657,"o":"m 117 818 l 197 754 l 338 888 l 479 754 l 561 818 l 338 1019 l 117 818 m 657 304 l 657 324 q 579 573 657 476 q 353 669 501 669 q 118 572 200 669 q 36 319 36 475 q 58 185 36 247 q 122 76 81 122 q 223 3 164 29 q 356 -22 282 -22 q 531 25 451 -22 q 657 156 611 72 l 551 215 q 469 120 513 151 q 357 89 425 89 q 217 153 271 89 q 161 304 163 217 l 657 304 m 168 399 q 230 515 179 469 q 353 561 281 561 q 474 517 426 561 q 532 399 521 474 l 168 399 z "},"ë":{"ha":678,"x_min":36,"x_max":657,"o":"m 193 964 q 133 940 158 964 q 108 881 108 915 q 133 821 108 846 q 193 796 158 796 q 252 821 228 796 q 276 881 276 846 q 252 940 276 915 q 193 964 228 964 m 486 964 q 426 940 451 964 q 401 881 401 915 q 426 821 401 846 q 486 796 451 796 q 545 821 521 796 q 569 881 569 846 q 545 940 569 915 q 486 964 521 964 m 657 304 l 657 324 q 579 573 657 476 q 353 669 501 669 q 118 572 200 669 q 36 319 36 475 q 58 185 36 247 q 122 76 81 122 q 223 3 164 29 q 356 -22 282 -22 q 531 25 451 -22 q 657 156 611 72 l 551 215 q 469 120 513 151 q 357 89 425 89 q 217 153 271 89 q 161 304 163 217 l 657 304 m 168 399 q 230 515 179 469 q 353 561 281 561 q 474 517 426 561 q 532 399 521 474 l 168 399 z "},"ì":{"ha":353,"x_min":-10,"x_max":279,"o":"m -10 958 l 218 751 l 279 789 l 106 1019 l -10 958 m 239 650 l 114 650 l 114 0 l 239 0 l 239 650 z "},"í":{"ha":353,"x_min":74,"x_max":363,"o":"m 247 1019 l 74 789 l 135 751 l 363 958 l 247 1019 m 239 650 l 114 650 l 114 0 l 239 0 l 239 650 z "},"î":{"ha":353,"x_min":-46,"x_max":399,"o":"m -46 818 l 35 754 l 175 888 l 317 754 l 399 818 l 175 1019 l -46 818 m 239 650 l 114 650 l 114 0 l 239 0 l 239 650 z "},"ï":{"ha":353,"x_min":-54,"x_max":407,"o":"m 31 964 q -29 940 -4 964 q -54 881 -54 915 q -29 821 -54 846 q 31 796 -4 796 q 90 821 65 796 q 114 881 114 846 q 90 940 114 915 q 31 964 65 964 m 324 964 q 264 940 289 964 q 239 881 239 915 q 264 821 239 846 q 324 796 289 796 q 383 821 358 796 q 407 881 407 846 q 383 940 407 915 q 324 964 358 964 m 239 650 l 114 650 l 114 0 l 239 0 l 239 650 z "},"ð":{"ha":750,"x_min":28,"x_max":722,"o":"m 375 550 q 461 533 421 550 q 533 483 501 515 q 581 410 564 451 q 597 324 597 369 q 580 238 597 279 q 532 165 563 196 q 461 115 501 133 q 375 97 421 97 q 289 115 329 97 q 218 165 249 133 q 170 238 188 196 q 153 324 153 279 q 170 410 153 369 q 218 483 188 451 q 290 533 249 515 q 375 550 331 550 m 64 886 l 125 811 l 329 928 q 522 622 442 788 l 514 628 q 451 658 481 647 q 375 669 421 669 q 240 643 304 669 q 128 569 176 617 q 54 459 81 522 q 28 324 28 396 q 54 188 28 251 q 128 78 81 125 q 240 4 176 31 q 375 -22 304 -22 q 512 3 449 -22 q 622 76 575 28 q 696 194 669 124 q 722 350 722 264 q 700 510 722 426 q 638 676 678 593 q 547 838 599 758 q 433 988 494 917 l 629 1100 l 571 1176 l 369 1061 q 190 1218 276 1160 l 111 1147 q 265 1001 190 1085 l 64 886 z "},"ñ":{"ha":726,"x_min":86,"x_max":640,"o":"m 164 796 q 198 840 176 821 q 243 860 219 860 q 343 829 276 860 l 351 825 q 415 798 389 807 q 467 789 440 789 q 563 820 521 789 q 631 903 606 851 l 565 957 q 526 909 547 928 q 476 890 504 890 q 378 928 446 890 l 376 928 q 253 964 310 964 q 171 937 203 964 q 103 858 139 910 l 99 851 l 164 796 m 211 650 l 86 650 l 86 0 l 211 0 l 211 299 q 215 400 211 360 q 233 477 218 440 q 281 536 247 514 q 372 558 315 558 q 488 513 461 558 q 515 372 515 468 l 515 0 l 640 0 l 640 388 q 630 501 640 450 q 593 590 619 551 q 522 649 567 628 q 410 669 476 669 q 295 642 349 669 q 214 563 242 614 l 211 563 l 211 650 z "},"ò":{"ha":750,"x_min":28,"x_max":722,"o":"m 175 958 l 403 751 l 464 789 l 290 1019 l 175 958 m 375 669 q 240 643 304 669 q 128 569 176 617 q 54 459 81 522 q 28 324 28 396 q 54 188 28 251 q 128 78 81 125 q 240 4 176 31 q 375 -22 304 -22 q 510 4 447 -22 q 622 78 574 31 q 696 188 669 125 q 722 324 722 251 q 696 459 722 396 q 622 569 669 522 q 510 643 574 617 q 375 669 447 669 m 375 550 q 461 533 421 550 q 533 483 501 515 q 581 410 564 451 q 597 324 597 369 q 580 238 597 279 q 532 165 563 196 q 461 115 501 133 q 375 97 421 97 q 289 115 329 97 q 218 165 249 133 q 170 238 188 196 q 153 324 153 279 q 170 410 153 369 q 218 483 188 451 q 290 533 249 515 q 375 550 331 550 z "},"ó":{"ha":750,"x_min":28,"x_max":722,"o":"m 460 1019 l 286 789 l 347 751 l 575 958 l 460 1019 m 375 669 q 240 643 304 669 q 128 569 176 617 q 54 459 81 522 q 28 324 28 396 q 54 188 28 251 q 128 78 81 125 q 240 4 176 31 q 375 -22 304 -22 q 510 4 447 -22 q 622 78 574 31 q 696 188 669 125 q 722 324 722 251 q 696 459 722 396 q 622 569 669 522 q 510 643 574 617 q 375 669 447 669 m 375 550 q 461 533 421 550 q 533 483 501 515 q 581 410 564 451 q 597 324 597 369 q 580 238 597 279 q 532 165 563 196 q 461 115 501 133 q 375 97 421 97 q 289 115 329 97 q 218 165 249 133 q 170 238 188 196 q 153 324 153 279 q 170 410 153 369 q 218 483 188 451 q 290 533 249 515 q 375 550 331 550 z "},"ô":{"ha":750,"x_min":28,"x_max":722,"o":"m 153 818 l 233 754 l 374 888 l 515 754 l 597 818 l 374 1019 l 153 818 m 375 669 q 240 643 304 669 q 128 569 176 617 q 54 459 81 522 q 28 324 28 396 q 54 188 28 251 q 128 78 81 125 q 240 4 176 31 q 375 -22 304 -22 q 510 4 447 -22 q 622 78 574 31 q 696 188 669 125 q 722 324 722 251 q 696 459 722 396 q 622 569 669 522 q 510 643 574 617 q 375 669 447 669 m 375 550 q 461 533 421 550 q 533 483 501 515 q 581 410 564 451 q 597 324 597 369 q 580 238 597 279 q 532 165 563 196 q 461 115 501 133 q 375 97 421 97 q 289 115 329 97 q 218 165 249 133 q 170 238 188 196 q 153 324 153 279 q 170 410 153 369 q 218 483 188 451 q 290 533 249 515 q 375 550 331 550 z "},"õ":{"ha":750,"x_min":28,"x_max":722,"o":"m 175 796 q 209 840 188 821 q 254 860 231 860 q 354 829 288 860 l 363 825 q 426 798 400 807 q 478 789 451 789 q 574 820 532 789 q 642 903 617 851 l 576 957 q 537 909 558 928 q 488 890 515 890 q 389 928 457 890 l 388 928 q 264 964 321 964 q 182 937 214 964 q 114 858 150 910 l 110 851 l 175 796 m 375 669 q 240 643 304 669 q 128 569 176 617 q 54 459 81 522 q 28 324 28 396 q 54 188 28 251 q 128 78 81 125 q 240 4 176 31 q 375 -22 304 -22 q 510 4 447 -22 q 622 78 574 31 q 696 188 669 125 q 722 324 722 251 q 696 459 722 396 q 622 569 669 522 q 510 643 574 617 q 375 669 447 669 m 375 550 q 461 533 421 550 q 533 483 501 515 q 581 410 564 451 q 597 324 597 369 q 580 238 597 279 q 532 165 563 196 q 461 115 501 133 q 375 97 421 97 q 289 115 329 97 q 218 165 249 133 q 170 238 188 196 q 153 324 153 279 q 170 410 153 369 q 218 483 188 451 q 290 533 249 515 q 375 550 331 550 z "},"ö":{"ha":750,"x_min":28,"x_max":722,"o":"m 229 964 q 169 940 194 964 q 144 881 144 915 q 169 821 144 846 q 229 796 194 796 q 288 821 264 796 q 313 881 313 846 q 288 940 313 915 q 229 964 264 964 m 522 964 q 463 940 488 964 q 438 881 438 915 q 463 821 438 846 q 522 796 488 796 q 581 821 557 796 q 606 881 606 846 q 581 940 606 915 q 522 964 557 964 m 375 669 q 240 643 304 669 q 128 569 176 617 q 54 459 81 522 q 28 324 28 396 q 54 188 28 251 q 128 78 81 125 q 240 4 176 31 q 375 -22 304 -22 q 510 4 447 -22 q 622 78 574 31 q 696 188 669 125 q 722 324 722 251 q 696 459 722 396 q 622 569 669 522 q 510 643 574 617 q 375 669 447 669 m 375 550 q 461 533 421 550 q 533 483 501 515 q 581 410 564 451 q 597 324 597 369 q 580 238 597 279 q 532 165 563 196 q 461 115 501 133 q 375 97 421 97 q 289 115 329 97 q 218 165 249 133 q 170 238 188 196 q 153 324 153 279 q 170 410 153 369 q 218 483 188 451 q 290 533 249 515 q 375 550 331 550 z "},"÷":{"ha":803,"x_min":46,"x_max":757,"o":"m 46 296 l 757 296 l 757 415 l 46 415 l 46 296 m 401 172 q 340 147 365 172 q 315 85 315 121 q 340 25 315 50 q 401 0 365 0 q 463 25 438 0 q 488 85 488 50 q 463 147 488 121 q 401 172 438 172 m 401 711 q 340 685 365 711 q 315 624 315 660 q 340 564 315 589 q 401 539 365 539 q 463 564 438 539 q 488 624 488 589 q 463 685 488 660 q 401 711 438 711 z "},"ø":{"ha":750,"x_min":11,"x_max":739,"o":"m 193 196 q 153 324 153 254 q 170 410 153 369 q 218 483 188 451 q 290 533 249 515 q 375 550 331 550 q 503 508 444 550 l 193 196 m 563 443 q 597 324 597 392 q 580 238 597 279 q 532 165 563 196 q 461 115 501 133 q 375 97 421 97 q 256 133 308 97 l 563 443 m 11 13 l 72 -53 l 168 44 q 264 -5 211 13 q 375 -22 317 -22 q 510 4 447 -22 q 622 78 574 31 q 696 188 669 125 q 722 324 722 251 q 704 438 722 383 q 653 535 686 492 l 739 622 l 675 682 l 590 597 q 375 669 496 669 q 240 643 304 669 q 128 569 176 617 q 54 459 81 522 q 28 324 28 396 q 48 205 28 261 q 104 106 68 149 l 11 13 z "},"ù":{"ha":711,"x_min":81,"x_max":631,"o":"m 156 958 l 383 751 l 444 789 l 271 1019 l 156 958 m 81 650 l 81 276 q 149 58 81 138 q 356 -22 217 -22 q 563 58 494 -22 q 631 276 631 138 l 631 650 l 506 650 l 506 290 q 499 213 506 247 q 476 152 493 179 q 430 110 460 125 q 356 94 400 94 q 281 110 311 94 q 235 152 251 125 q 212 213 218 179 q 206 290 206 247 l 206 650 l 81 650 z "},"ú":{"ha":711,"x_min":81,"x_max":631,"o":"m 440 1019 l 267 789 l 328 751 l 556 958 l 440 1019 m 81 650 l 81 276 q 149 58 81 138 q 356 -22 217 -22 q 563 58 494 -22 q 631 276 631 138 l 631 650 l 506 650 l 506 290 q 499 213 506 247 q 476 152 493 179 q 430 110 460 125 q 356 94 400 94 q 281 110 311 94 q 235 152 251 125 q 212 213 218 179 q 206 290 206 247 l 206 650 l 81 650 z "},"û":{"ha":711,"x_min":81,"x_max":631,"o":"m 133 818 l 214 754 l 354 888 l 496 754 l 578 818 l 354 1019 l 133 818 m 81 650 l 81 276 q 149 58 81 138 q 356 -22 217 -22 q 563 58 494 -22 q 631 276 631 138 l 631 650 l 506 650 l 506 290 q 499 213 506 247 q 476 152 493 179 q 430 110 460 125 q 356 94 400 94 q 281 110 311 94 q 235 152 251 125 q 212 213 218 179 q 206 290 206 247 l 206 650 l 81 650 z "},"ü":{"ha":711,"x_min":81,"x_max":631,"o":"m 210 964 q 150 940 175 964 q 125 881 125 915 q 150 821 125 846 q 210 796 175 796 q 269 821 244 796 q 293 881 293 846 q 269 940 293 915 q 210 964 244 964 m 503 964 q 443 940 468 964 q 418 881 418 915 q 443 821 418 846 q 503 796 468 796 q 562 821 538 796 q 586 881 586 846 q 562 940 586 915 q 503 964 538 964 m 81 650 l 81 276 q 149 58 81 138 q 356 -22 217 -22 q 563 58 494 -22 q 631 276 631 138 l 631 650 l 506 650 l 506 290 q 499 213 506 247 q 476 152 493 179 q 430 110 460 125 q 356 94 400 94 q 281 110 311 94 q 235 152 251 125 q 212 213 218 179 q 206 290 206 247 l 206 650 l 81 650 z "},"ý":{"ha":672,"x_min":-18,"x_max":692,"o":"m 449 1019 l 275 789 l 336 751 l 564 958 l 449 1019 m 279 111 l 24 -372 l 165 -372 l 692 650 l 551 650 l 347 238 l 128 650 l -18 650 l 279 111 z "},"þ":{"ha":772,"x_min":76,"x_max":736,"o":"m 201 1206 l 76 1206 l 76 -372 l 201 -372 l 201 101 l 204 101 q 301 11 243 44 q 425 -22 358 -22 q 556 6 497 -22 q 655 82 615 33 q 715 194 694 131 q 736 329 736 258 q 715 458 736 396 q 653 567 693 519 q 556 642 613 614 q 431 669 499 669 q 302 635 360 669 q 204 542 244 601 l 201 542 l 201 1206 m 400 89 q 250 158 306 89 q 194 325 194 228 q 251 490 194 421 q 400 558 307 558 q 554 491 497 558 q 611 325 611 424 q 555 157 611 225 q 400 89 499 89 z "},"ÿ":{"ha":672,"x_min":-18,"x_max":692,"o":"m 204 964 q 144 940 169 964 q 119 881 119 915 q 144 821 119 846 q 204 796 169 796 q 263 821 239 796 q 288 881 288 846 q 263 940 288 915 q 204 964 239 964 m 497 964 q 438 940 463 964 q 413 881 413 915 q 438 821 413 846 q 497 796 463 796 q 556 821 532 796 q 581 881 581 846 q 556 940 581 915 q 497 964 532 964 m 279 111 l 24 -372 l 165 -372 l 692 650 l 551 650 l 347 238 l 128 650 l -18 650 l 279 111 z "}}}
